<?xml version="1.0" standalone="no"?>
<!DOCTYPE svg PUBLIC "-//W3C//DTD SVG 20010904//EN"
 "http://www.w3.org/TR/2001/REC-SVG-20010904/DTD/svg10.dtd">
<svg version="1.0" xmlns="http://www.w3.org/2000/svg"
 width="1200.000000pt" height="1005.000000pt" viewBox="0 0 1200.000000 1005.000000"
 preserveAspectRatio="xMidYMid meet">

<g transform="translate(0.000000,1005.000000) scale(0.100000,-0.100000)"
fill="#000000" stroke="none">
<path d="M0 5025 l0 -5025 6000 0 6000 0 0 5025 0 5025 -6000 0 -6000 0 0
-5025z m6026 4623 c47 -95 88 -175 90 -177 3 -4 58 -12 349 -56 l50 -7 -145
-139 -145 -139 33 -191 c18 -105 31 -194 28 -196 -3 -3 -82 36 -176 86 l-171
91 -171 -90 c-94 -49 -174 -90 -179 -90 -5 0 -6 12 -3 28 2 15 18 101 34 192
l29 165 -143 142 -143 141 81 12 c45 6 133 19 196 28 l115 17 90 178 c50 97
91 177 92 177 2 0 42 -78 89 -172z m3378 -281 c116 -117 240 -235 276 -262 35
-28 82 -73 102 -101 79 -105 458 -729 458 -753 0 -13 -17 -49 -37 -78 -32 -46
-39 -52 -51 -39 -12 12 -11 19 9 54 l24 41 -38 77 c-115 232 -359 562 -602
813 -110 114 -229 221 -246 221 -8 0 -8 -4 -1 -13 6 -7 29 -53 52 -102 l41
-90 -64 64 c-61 59 -68 71 -107 180 -24 64 -50 128 -58 142 -17 31 -10 59 15
59 9 0 112 -96 227 -213z m-6747 181 c-3 -13 -19 -61 -37 -108 -17 -47 -39
-107 -48 -134 -11 -34 -36 -69 -84 -120 l-68 -71 35 78 c19 42 42 91 50 107 9
17 11 30 6 30 -11 0 -141 -121 -240 -223 -223 -232 -481 -593 -592 -831 l-31
-65 22 -40 c17 -28 20 -43 13 -56 -9 -15 -16 -10 -52 37 -22 30 -41 65 -41 78
0 22 364 641 445 755 24 34 77 87 121 122 44 34 144 132 222 217 79 85 165
175 192 200 54 51 96 62 87 24z m2113 -124 l75 -105 133 4 c72 3 132 1 132 -3
0 -4 -33 -53 -74 -109 l-73 -102 43 -121 c24 -67 42 -124 40 -126 -3 -2 -56
12 -119 32 -63 20 -120 36 -126 36 -7 0 -55 -34 -107 -76 -53 -42 -98 -73
-101 -71 -2 3 -7 63 -10 134 l-6 128 -103 70 c-57 39 -103 72 -104 75 0 3 56
25 124 48 l123 43 33 117 c30 108 38 132 43 132 1 0 36 -47 77 -106z m2459
-15 c19 -66 39 -123 45 -127 6 -4 64 -25 130 -48 l120 -40 -110 -75 -109 -75
-3 -132 c-1 -73 -6 -132 -10 -132 -4 0 -50 34 -102 75 -52 41 -100 75 -106 75
-6 0 -61 -16 -123 -36 -62 -19 -116 -34 -120 -32 -4 2 12 58 36 124 l44 121
-76 105 c-41 58 -75 107 -75 110 0 2 60 3 133 1 l132 -4 75 105 c41 58 77 106
80 106 3 0 20 -54 39 -121z m2149 -378 c103 -93 270 -277 385 -423 140 -180
327 -479 327 -525 0 -9 -32 -67 -71 -130 -84 -137 -95 -161 -74 -169 15 -6
145 60 202 103 17 12 34 20 36 16 12 -20 127 -517 127 -548 0 -7 -15 -22 -32
-32 -60 -35 -288 -225 -282 -234 3 -5 9 -7 14 -4 12 7 187 61 228 70 32 7 32
7 32 -33 0 -23 -6 -47 -14 -54 -7 -8 -70 -40 -140 -73 -130 -60 -157 -82 -86
-71 78 12 217 19 223 10 7 -12 -153 -412 -240 -600 -154 -333 -323 -567 -609
-844 -182 -176 -539 -455 -569 -444 -11 5 -15 13 -11 28 24 81 17 95 -24 51
-29 -30 -49 -32 -81 -4 -13 11 -37 28 -54 36 -58 30 -58 33 -11 69 52 40 66
41 172 14 119 -31 123 -32 74 -9 -115 52 -139 64 -140 71 0 4 15 17 33 29 17
13 78 65 135 117 l102 95 143 -6 c94 -4 125 -3 92 3 -27 5 -75 16 -105 26 -30
9 -61 19 -69 21 -12 3 -12 7 2 21 14 13 33 16 85 15 66 -2 66 -2 19 7 -59 10
-64 15 -46 36 12 14 29 16 119 11 102 -5 103 -5 45 7 -33 7 -70 18 -82 24 -22
12 -22 13 25 71 51 64 330 524 383 633 37 75 41 77 144 79 l70 2 -65 7 c-36 4
-73 11 -82 15 -39 16 4 44 122 79 134 39 154 46 121 41 -113 -17 -211 -28
-216 -23 -3 3 6 47 20 99 28 106 57 266 76 412 l13 97 54 38 c30 20 83 56 118
79 75 50 83 64 17 29 -27 -14 -75 -37 -108 -53 -33 -15 -63 -29 -67 -31 -5 -2
-8 8 -8 21 0 25 45 59 263 197 37 23 67 44 67 47 0 2 -35 -14 -77 -36 -238
-121 -240 -122 -247 -98 -3 12 -6 40 -7 62 -1 22 -5 -5 -10 -60 -21 -276 -76
-595 -130 -760 -67 -201 -198 -434 -414 -735 -120 -167 -196 -252 -335 -374
l-123 -109 -20 38 c-19 38 -19 38 2 80 12 23 21 48 21 54 0 7 55 72 123 144
157 171 270 305 323 387 92 144 208 407 270 613 20 67 52 165 71 217 57 156
73 246 80 440 13 392 -64 809 -230 1235 -58 148 -146 352 -183 423 -12 23 -18
42 -13 42 5 0 48 -36 97 -79z m-6875 -13 c-252 -583 -345 -943 -368 -1428 -7
-144 6 -341 31 -447 8 -33 36 -121 63 -195 27 -73 61 -173 76 -222 51 -169
185 -456 274 -591 48 -72 172 -216 339 -394 67 -71 122 -137 122 -145 0 -8 8
-28 17 -44 15 -26 15 -34 4 -70 -11 -34 -17 -40 -31 -32 -34 18 -267 229 -316
286 -241 280 -501 699 -576 929 -42 128 -95 406 -118 620 -6 61 -15 126 -20
145 -8 34 -8 34 -9 -13 l-1 -48 -67 35 c-93 48 -270 129 -258 118 6 -4 80 -52
166 -105 123 -76 158 -102 161 -122 6 -31 1 -31 -58 0 -26 14 -53 25 -60 25
-7 0 -35 12 -61 26 -73 40 -39 12 82 -69 l109 -72 18 -115 c25 -165 55 -312
84 -408 14 -46 24 -86 21 -88 -2 -3 -53 2 -112 11 -59 9 -112 14 -118 11 -7
-2 -5 -5 4 -5 25 -1 212 -57 237 -70 32 -17 27 -39 -10 -46 -135 -22 -137 -23
-41 -22 51 0 95 -1 97 -4 2 -2 18 -32 35 -67 65 -130 337 -562 407 -648 l35
-42 -43 -16 c-24 -9 -61 -20 -83 -26 -39 -9 -39 -9 10 -4 130 13 164 12 180
-6 15 -17 12 -19 -42 -33 l-58 -16 68 6 c46 4 72 1 82 -7 19 -16 19 -30 0 -30
-8 0 -36 -8 -62 -17 -26 -9 -75 -22 -108 -30 l-60 -13 65 6 c36 3 104 7 151
10 l86 5 89 -82 c49 -45 110 -97 137 -116 26 -19 47 -36 47 -38 0 -2 -42 -24
-92 -50 -51 -25 -84 -44 -73 -41 11 3 65 17 119 30 l99 25 41 -31 c23 -17 45
-35 50 -39 4 -4 -9 -16 -30 -28 -22 -11 -52 -31 -68 -45 -36 -32 -39 -32 -82
0 -19 15 -37 24 -40 21 -5 -4 8 -56 31 -122 l7 -20 -19 20 c-10 11 -25 21 -33
23 -20 5 -222 153 -384 281 -145 116 -329 297 -455 447 -124 148 -233 319
-326 509 -115 235 -265 590 -265 627 0 11 186 4 238 -9 37 -9 25 17 -16 34
-20 8 -83 37 -138 63 l-102 48 -4 42 -4 42 49 -5 c27 -4 87 -18 134 -32 46
-14 89 -25 95 -23 11 4 -132 122 -244 202 -56 40 -68 53 -68 76 0 44 102 508
117 532 2 5 19 -3 36 -15 41 -31 181 -107 196 -107 27 0 5 54 -69 170 -59 91
-79 129 -74 144 24 81 208 382 325 532 146 188 429 494 458 494 6 0 -6 -37
-26 -82z m1678 -472 c98 -23 196 -91 278 -194 79 -98 81 -113 6 -43 -38 35
-94 75 -124 89 -66 30 -179 41 -237 22 -21 -7 -77 -13 -124 -14 -127 -2 -167
-25 -245 -143 -137 -209 -182 -278 -219 -336 l-38 -62 6 60 7 60 -26 -30 c-14
-16 -37 -50 -51 -75 l-24 -45 6 38 c3 20 4 37 1 37 -8 0 -54 -144 -77 -241
-16 -69 -49 -268 -50 -301 0 -5 -16 -8 -35 -8 -26 0 -42 -7 -62 -30 -23 -27
-33 -30 -84 -30 -38 0 -63 -5 -73 -15 -19 -20 -30 -111 -23 -196 8 -98 16
-109 80 -110 l52 0 26 -55 26 -54 -69 0 c-63 0 -72 3 -98 29 -83 82 -86 388
-5 475 l26 28 -91 157 c-123 216 -133 241 -133 326 0 124 67 229 183 284 53
25 62 26 283 29 l228 4 22 30 c38 52 150 133 211 152 31 10 56 21 56 26 0 10
95 82 137 104 41 21 129 45 168 45 17 0 55 -5 86 -13z m3678 3 c66 -15 140
-55 205 -110 32 -27 65 -49 73 -49 33 0 135 -66 194 -125 l62 -63 236 -4 c234
-3 236 -4 293 -31 139 -68 212 -237 163 -381 -8 -24 -60 -123 -116 -220 l-101
-176 21 -26 c34 -43 51 -119 51 -223 0 -117 -22 -201 -62 -242 -28 -28 -33
-29 -124 -29 -107 0 -96 12 -113 -120 -22 -163 -109 -440 -178 -560 -89 -156
-221 -279 -327 -304 -16 -4 -52 -28 -80 -52 -27 -25 -67 -54 -87 -65 -34 -17
-72 -79 -444 -731 -224 -392 -410 -717 -413 -722 -11 -18 124 5 176 30 68 33
171 137 238 239 28 44 94 159 144 255 112 210 271 488 337 587 68 100 176 225
257 295 136 117 174 117 218 -2 18 -47 40 -86 60 -104 28 -26 36 -28 89 -24
46 3 69 11 105 37 25 18 48 30 51 27 6 -6 -16 -75 -33 -101 -35 -53 -246 -145
-336 -145 -36 0 -54 6 -77 26 l-31 26 0 -27 c0 -14 10 -36 23 -49 13 -13 34
-54 46 -92 12 -38 36 -88 52 -112 16 -23 29 -45 29 -47 0 -20 -393 25 -418 48
-10 10 -22 17 -25 17 -36 0 62 -104 119 -126 44 -17 58 -34 28 -34 -25 0 -146
-51 -189 -80 l-41 -27 -54 19 c-29 10 -56 15 -59 12 -10 -9 61 -61 102 -75 31
-10 51 -10 120 5 45 10 90 22 100 28 10 5 21 7 24 4 17 -16 -155 -156 -223
-182 -48 -18 -48 -18 -121 8 -40 14 -75 23 -78 18 -5 -9 71 -59 120 -78 50
-19 157 -42 203 -42 23 0 42 -4 42 -8 0 -17 -126 -122 -147 -122 -6 0 -31 18
-56 40 -25 22 -48 40 -51 40 -14 0 -4 -39 20 -77 33 -51 70 -72 134 -80 28 -3
53 -10 56 -14 9 -15 -49 -24 -151 -24 -87 0 -107 3 -156 26 -31 15 -75 44 -98
64 -36 33 -40 35 -32 14 17 -44 64 -133 103 -195 21 -34 38 -63 38 -66 0 -3
-24 -16 -52 -28 -41 -18 -73 -23 -141 -24 -88 -1 -88 -1 -55 -16 18 -8 53 -30
77 -47 23 -18 52 -35 62 -38 10 -4 19 -10 19 -15 0 -10 -94 -31 -112 -25 -7 3
-33 7 -58 9 -109 11 -134 17 -167 42 -19 14 -37 32 -40 40 -3 8 -9 14 -15 14
-15 0 1 -42 31 -80 15 -19 40 -73 56 -120 15 -47 39 -97 53 -112 l26 -28 -27
0 c-15 0 -27 6 -27 13 0 8 -3 9 -8 1 -4 -6 -23 -11 -42 -11 -19 0 -38 5 -42
11 -5 8 -8 7 -8 -1 0 -7 -9 -13 -20 -13 -11 0 -20 4 -20 10 0 5 -7 7 -15 4
-10 -4 -18 3 -25 20 -11 30 -24 36 -15 6 4 -14 2 -20 -9 -20 -10 0 -18 17 -24
53 l-10 52 -1 -44 c-1 -37 -3 -42 -16 -31 -8 7 -15 17 -15 22 0 5 -9 21 -20
35 -14 18 -20 41 -20 74 0 53 -15 64 -30 24 -6 -17 -4 -40 6 -77 21 -71 27
-123 19 -155 l-6 -26 -39 38 c-50 49 -88 121 -91 173 -2 23 -4 42 -5 42 -6 0
-124 -219 -124 -231 0 -34 123 -189 134 -170 18 28 16 99 -3 156 l-21 60 35
-37 c19 -20 35 -40 35 -44 0 -4 8 -16 17 -26 16 -18 16 -23 0 -86 -9 -37 -34
-101 -54 -142 -33 -68 -38 -73 -44 -50 -4 14 -7 42 -8 63 -1 48 -19 83 -66
127 -21 19 -45 47 -54 61 l-16 26 -210 -368 -210 -369 -74 0 c-57 0 -72 3 -68
13 3 8 352 621 776 1362 l770 1349 -72 23 c-40 12 -80 28 -90 35 -15 11 -7 12
50 9 183 -10 225 -7 287 24 111 56 222 186 305 360 77 160 161 432 177 573 3
34 10 59 15 56 4 -2 15 9 24 26 8 16 23 30 31 30 13 0 14 -8 9 -40 -4 -22 -3
-40 2 -40 4 0 19 18 33 40 14 22 28 40 31 40 10 0 -20 -168 -51 -286 -62 -232
-139 -375 -283 -519 -55 -54 -95 -101 -89 -103 6 -2 28 6 49 17 188 96 350
415 408 804 11 73 19 94 44 122 42 48 54 102 54 230 0 115 -17 179 -62 230
-12 14 -21 52 -30 125 -13 108 -67 339 -94 400 l-15 35 -1 -30 -1 -30 -21 40
c-11 22 -33 52 -47 67 l-27 28 3 -53 3 -52 -30 50 c-53 92 -60 83 -25 -33 37
-121 57 -213 79 -360 17 -115 20 -220 3 -122 -66 388 -110 545 -205 735 -95
187 -164 252 -284 262 -56 6 -119 -9 -119 -28 0 -4 -29 5 -65 22 -75 34 -159
39 -241 14 l-49 -14 45 39 c111 96 236 135 349 109z m-3545 -193 c21 -10 36
-19 34 -21 -2 -2 -45 1 -95 7 -87 11 -158 6 -228 -17 -30 -10 35 27 75 42 45
17 162 11 214 -11z m3441 -10 c28 -15 41 -24 30 -21 -86 27 -177 30 -295 10
-31 -6 -33 -5 -15 6 75 48 197 50 280 5z m-3837 -39 c-31 -23 -121 -60 -112
-45 14 23 89 68 113 67 l26 0 -27 -22z m4107 0 c45 -26 119 -113 160 -190 l28
-52 -36 40 c-20 22 -36 43 -37 47 -1 16 -120 97 -168 114 -42 15 -52 23 -52
41 0 19 5 23 33 23 17 0 50 -10 72 -23z m-3875 -37 c28 -28 26 -39 -22 -95
-108 -130 -198 -296 -242 -446 -51 -178 -61 -278 -61 -622 0 -278 -2 -314 -14
-285 -36 89 -35 88 -41 29 l-5 -55 -25 54 -25 54 -5 -60 -5 -59 -28 50 -27 50
6 -60 c17 -178 59 -365 112 -500 30 -78 88 -195 97 -195 1 0 -1 19 -5 43 -6
33 -5 38 4 23 121 -201 197 -268 318 -282 56 -6 122 10 180 46 l31 19 -56 0
c-31 0 -68 6 -84 15 l-28 15 51 1 c107 0 208 61 280 167 42 64 87 183 98 263
l7 45 -24 -55 c-24 -57 -46 -99 -47 -89 0 3 9 32 20 65 25 71 66 272 76 369 6
57 12 74 35 97 64 64 72 30 39 -167 -71 -436 -246 -763 -456 -851 -60 -25
-171 -21 -237 9 -184 85 -348 371 -422 741 -35 176 -46 295 -45 516 0 291 33
509 111 738 57 163 134 306 203 374 56 55 196 78 236 38z m3707 -8 c70 -36
172 -201 237 -382 40 -111 82 -291 102 -437 21 -156 24 -494 5 -638 -38 -297
-117 -547 -230 -722 -176 -275 -410 -324 -604 -126 -104 106 -177 238 -241
435 -49 150 -111 486 -93 505 10 9 61 -16 74 -37 7 -10 17 -58 23 -107 15
-121 45 -265 74 -354 13 -41 23 -75 21 -77 -2 -2 -18 33 -36 77 -18 44 -35 79
-37 77 -2 -3 6 -42 17 -88 57 -228 182 -362 350 -376 62 -5 63 -5 37 -19 -15
-8 -50 -14 -79 -15 -47 0 -50 -1 -32 -14 10 -8 44 -23 74 -35 138 -52 278 22
392 206 45 72 50 76 44 43 -27 -148 112 174 156 362 22 92 49 267 49 315 0 29
-1 29 -19 -11 -29 -65 -41 -64 -41 3 l-1 58 -29 -60 -28 -60 -2 65 -1 65 -26
-63 c-14 -35 -27 -62 -28 -60 -2 2 0 75 5 163 14 281 -9 573 -61 765 -37 138
-140 330 -241 451 -41 49 -49 91 -20 109 27 17 141 6 189 -18z m-4000 -63
c-13 -17 -54 -45 -91 -63 l-66 -32 32 34 c31 32 123 92 141 92 5 0 -2 -14 -16
-31z m589 11 c117 -57 221 -260 288 -561 29 -131 53 -315 43 -325 -12 -13 -56
14 -70 43 -8 15 -22 79 -31 141 -25 169 -69 330 -119 436 -178 375 -428 205
-527 -359 -96 -545 -9 -1217 187 -1445 l38 -44 -34 19 c-58 35 -139 131 -181
218 -130 269 -164 749 -90 1259 25 169 58 288 110 395 96 196 253 287 386 223z
m3109 -4 c229 -107 359 -566 342 -1211 -8 -296 -47 -504 -124 -662 -40 -82
-134 -193 -187 -220 l-31 -16 39 43 c85 94 164 320 203 576 22 150 25 607 5
754 -64 456 -215 723 -379 669 -129 -42 -249 -315 -292 -667 -12 -91 -20 -113
-53 -136 -43 -30 -51 -22 -43 47 37 345 154 684 272 787 74 65 160 78 248 36z
m513 -54 c46 -38 58 -65 15 -34 -16 11 -44 24 -64 31 -30 10 -79 57 -79 76 0
10 85 -38 128 -73z m-861 -22 l-42 -69 -1259 2 -1259 2 -38 60 c-21 33 -38 63
-38 68 -1 4 602 7 1338 7 l1340 0 -42 -70z m3122 -27 c42 -81 140 -454 148
-563 8 -118 -6 -164 -57 -190 l-40 -20 2 46 c2 25 8 50 15 56 7 6 13 22 13 35
0 37 -117 536 -132 566 -9 18 -10 18 -31 0 -26 -23 -187 -116 -192 -111 -12
12 44 70 93 96 31 17 79 47 107 66 57 41 61 42 74 19z m-8767 -28 c17 -14 64
-44 104 -66 63 -35 131 -95 119 -107 -4 -4 -147 72 -188 101 -16 11 -32 16
-37 11 -4 -5 -25 -83 -45 -174 -20 -91 -40 -183 -45 -205 -6 -22 -17 -77 -26
-123 -14 -73 -14 -85 -1 -100 8 -9 17 -36 21 -60 6 -42 6 -43 -16 -37 -48 14
-64 33 -76 85 -7 28 -12 68 -12 88 0 97 117 557 152 600 14 16 16 16 50 -13z
m2773 -31 c87 -41 172 -255 208 -524 29 -213 31 -240 13 -240 -9 0 -19 15 -26
39 -5 21 -20 50 -31 65 -20 26 -24 27 -106 24 -78 -3 -88 -5 -104 -28 -68 -93
-68 -447 0 -540 16 -23 26 -25 104 -28 82 -3 86 -2 106 24 12 15 26 44 33 65
11 39 38 54 38 21 0 -9 -7 -74 -15 -144 -46 -394 -160 -644 -281 -614 -90 23
-177 212 -223 486 -94 551 8 1278 194 1392 37 22 48 22 90 2z m3225 1 c89 -46
167 -247 211 -537 87 -590 -43 -1312 -243 -1344 -70 -12 -146 88 -202 264 -40
128 -95 476 -79 505 10 17 23 4 38 -42 24 -75 38 -82 136 -79 82 3 84 4 106
36 31 48 47 131 47 257 1 124 -17 222 -48 268 -21 31 -24 32 -108 35 -84 3
-86 2 -106 -25 -11 -16 -24 -44 -29 -63 -5 -20 -16 -35 -24 -35 -17 0 -15 80
7 230 35 240 91 406 166 491 48 54 80 64 128 39z m-1880 -17 c19 -6 54 -24 78
-40 43 -29 44 -30 83 -14 57 23 175 21 242 -4 77 -29 134 -95 151 -177 l7 -31
36 14 c68 29 192 14 256 -31 18 -12 62 -15 264 -15 l243 0 0 -25 0 -25 -220 0
-220 0 11 -27 c6 -16 10 -56 10 -90 l0 -63 52 0 c77 0 144 -35 191 -99 34 -46
41 -51 77 -51 32 0 39 -3 39 -20 0 -18 -7 -20 -64 -20 -62 0 -64 1 -74 29 -8
23 -20 32 -54 41 -24 7 -50 16 -58 21 -46 28 -99 49 -128 49 l-34 0 7 63 c8
76 -6 135 -39 167 -21 19 -32 22 -66 17 -26 -3 -55 0 -77 10 -37 15 -141 15
-174 -1 -14 -6 -18 3 -28 55 -13 76 -50 136 -89 145 -15 3 -33 8 -41 10 -20 6
-217 -15 -249 -27 -20 -8 -28 -7 -31 3 -2 7 -21 29 -41 49 -65 62 -193 75
-296 30 -63 -28 -140 -105 -185 -186 l-39 -70 0 -202 0 -203 -195 0 c-188 0
-195 1 -195 20 0 19 7 20 190 20 l190 0 -2 163 -3 162 -210 3 c-211 2 -224 5
-225 40 0 9 51 12 220 12 l220 0 0 26 c0 37 45 122 88 167 106 110 245 148
382 105z m5 -78 l20 -9 -20 1 c-11 0 -33 4 -50 8 l-30 8 30 0 c17 0 39 -3 50
-8z m-2014 -144 c-74 -232 -112 -576 -94 -851 6 -88 10 -162 8 -164 -3 -2 -16
21 -30 50 l-25 54 3 -67 c2 -38 2 -68 0 -68 -2 0 -17 21 -33 47 -27 43 -30 44
-30 20 0 -44 40 -235 67 -321 28 -89 98 -235 146 -306 17 -25 67 -80 111 -122
44 -43 77 -80 75 -83 -12 -11 -98 44 -149 96 -138 141 -244 409 -285 722 -17
137 -20 432 -5 557 23 182 99 479 108 422 3 -20 8 -17 35 29 41 68 53 71 49
12 l-3 -48 17 30 c25 46 58 94 62 90 2 -2 -10 -46 -27 -99z m2014 71 c62 -34
75 -70 75 -210 l0 -118 -57 8 c-159 22 -239 2 -278 -70 -11 -20 -23 -37 -26
-37 -3 0 -9 37 -12 82 -7 87 -26 130 -62 137 -14 2 -16 -1 -10 -15 5 -11 10
-41 12 -69 3 -40 -2 -62 -26 -110 l-29 -60 -1 143 c-1 162 4 178 73 250 70 74
148 105 241 96 33 -3 78 -15 100 -27z m2469 -24 l36 -57 0 43 c0 39 2 42 16
30 9 -7 29 -36 46 -64 23 -40 29 -44 25 -22 -2 15 -2 27 0 27 16 0 78 -247 99
-397 23 -158 22 -467 0 -618 -43 -282 -124 -504 -239 -654 -44 -57 -123 -122
-170 -140 -25 -10 -27 -9 -18 8 6 10 34 38 62 62 166 139 288 415 333 754 l5
40 -32 -50 -32 -50 -3 64 -3 65 -25 -54 c-13 -29 -26 -51 -28 -49 -2 2 0 47 6
99 13 119 3 442 -16 575 -24 159 -65 333 -102 430 -13 32 6 12 40 -42z m-2069
-56 c18 -18 38 -51 44 -72 13 -49 15 -222 2 -230 -5 -3 -68 4 -140 16 l-131
22 0 115 0 114 34 34 c31 31 39 34 96 34 57 0 65 -3 95 -33z m379 -198 c23
-27 26 -40 26 -101 0 -126 -95 -507 -144 -581 -63 -94 -215 -85 -276 16 -18
29 -18 31 0 67 11 21 24 57 30 82 10 40 17 47 64 70 102 50 146 106 146 183 0
40 -12 68 -42 101 -17 19 -18 27 -8 64 16 61 35 86 83 109 59 30 90 27 121
-10z m4188 -56 c71 -77 173 -263 227 -415 46 -131 47 -164 12 -293 -16 -60
-27 -112 -24 -115 2 -3 25 18 49 45 24 28 44 46 44 40 0 -5 6 -39 14 -75 32
-152 28 -370 -11 -569 -18 -94 -36 -119 -100 -144 -24 -10 -60 -24 -81 -33
-21 -8 -56 -14 -77 -12 -36 3 -33 5 64 42 56 22 104 43 107 47 2 4 8 43 14 86
5 43 16 137 25 208 8 72 16 177 16 235 2 158 5 150 -40 106 -37 -36 -39 -37
-46 -17 -6 20 21 276 31 292 3 5 -11 46 -30 92 -45 108 -155 335 -157 322 -1
-5 0 -46 0 -90 2 -87 -1 -87 -43 -5 -19 37 -24 65 -28 163 -3 64 -2 117 1 117
4 0 19 -12 33 -27z m-5086 -60 l8 -68 8 65 c5 35 10 66 12 67 1 2 64 -7 139
-18 131 -21 136 -23 139 -47 4 -33 41 -59 108 -77 106 -28 249 -12 250 28 0 6
7 3 15 -7 21 -27 18 -103 -4 -151 -52 -113 -231 -185 -407 -163 -101 12 -131
31 -193 123 l-54 80 8 -70 c8 -81 35 -158 66 -191 29 -31 21 -47 -50 -93 -67
-43 -176 -76 -286 -87 -66 -7 -68 -8 -35 -17 19 -5 58 -7 87 -5 29 2 53 1 53
-2 0 -6 -31 -26 -80 -52 l-35 -19 52 5 c29 3 66 12 82 21 17 8 31 12 31 7 0
-16 -56 -87 -91 -116 -30 -26 -31 -28 -9 -21 74 23 187 120 263 228 11 16 18
14 92 -28 160 -91 312 -229 375 -338 l30 -52 0 35 c0 19 -9 71 -21 115 -32
126 -36 117 56 137 44 10 145 21 225 26 166 9 185 17 240 98 28 39 35 44 70
44 38 0 40 -2 40 -30 0 -41 -18 -78 -61 -126 -61 -68 -62 -74 -24 -123 19 -23
37 -55 40 -71 8 -38 -18 -179 -57 -300 -28 -89 -34 -99 -96 -161 -76 -74 -169
-130 -283 -170 -72 -24 -77 -27 -52 -34 16 -4 69 -10 118 -14 l90 -6 3 -35 c4
-58 -25 -90 -174 -188 -77 -51 -142 -93 -147 -94 -7 -3 -29 -479 -23 -486 2
-1 39 74 83 167 l80 170 7 -67 c3 -37 6 -127 6 -199 l0 -133 155 0 154 0 -1
443 c-2 423 -1 445 19 504 15 45 34 75 70 112 43 43 55 65 81 144 49 147 76
296 62 345 -6 23 -15 44 -20 47 -6 3 -10 33 -10 67 0 53 4 65 30 94 16 19 35
52 41 74 10 32 17 40 36 40 20 0 23 -3 17 -27 -4 -16 -11 -36 -15 -45 -5 -9
-9 -43 -9 -75 0 -105 -20 -276 -45 -378 -29 -122 -42 -162 -111 -337 -53 -132
-55 -142 -65 -275 -6 -82 -7 -258 -3 -435 l7 -298 166 0 167 0 224 395 c124
217 230 394 235 395 49 0 45 -8 -712 -1332 -670 -1174 -753 -1313 -776 -1316
-21 -3 -31 4 -51 35 -13 21 -358 622 -766 1336 -687 1204 -740 1300 -723 1312
10 8 21 11 25 7 4 -4 112 -191 241 -417 l234 -410 259 0 259 0 21 170 c15 116
38 232 73 368 28 108 51 198 51 200 0 1 26 3 58 3 31 1 77 7 102 14 l45 13
-51 16 c-71 24 -135 63 -191 119 -56 54 -413 584 -463 686 -34 70 -49 157 -36
210 3 14 36 58 71 98 115 129 225 301 300 470 22 51 48 94 61 103 23 15 24 14
49 -32 25 -48 26 -45 10 31 -5 23 1 36 16 36 3 0 10 -30 15 -67z m-4340 -61
c-4 -108 -7 -124 -35 -178 l-30 -59 -1 90 c0 50 -4 85 -9 80 -11 -13 -103
-214 -143 -312 l-31 -78 21 -148 c11 -81 17 -160 13 -174 l-7 -26 -31 38 c-17
20 -36 34 -42 31 -21 -13 -11 -154 33 -491 22 -167 24 -174 50 -181 13 -3 61
-21 107 -39 80 -33 82 -34 44 -35 -23 0 -80 15 -133 36 -84 32 -96 40 -108 70
-22 53 -42 171 -55 326 -10 121 -9 161 4 261 9 64 19 122 23 129 5 7 23 -6 51
-38 l44 -49 -7 44 c-3 25 -15 70 -26 100 -40 114 -17 237 83 450 59 127 155
271 180 271 6 0 8 -46 5 -118z m4848 52 c112 -19 137 -34 101 -60 -11 -8 -44
-14 -80 -14 -78 0 -168 41 -173 79 -3 20 0 23 20 18 12 -3 72 -13 132 -23z
m-1589 -107 c8 -13 18 -37 21 -55 6 -28 4 -32 -14 -32 -40 0 -57 -52 -57 -170
0 -117 14 -163 53 -168 28 -4 29 -35 2 -79 -27 -45 -47 -42 -70 10 -58 130
-48 427 16 498 22 25 30 24 49 -4z m2916 -45 c55 -146 23 -492 -47 -492 -18 0
-42 38 -50 78 -6 29 -4 32 19 32 38 0 52 45 52 175 0 120 -15 165 -55 165 -24
0 -25 20 -4 63 33 63 55 57 85 -21z m-683 2 c18 -13 22 -25 22 -71 0 -35 -7
-72 -19 -97 -11 -23 -27 -68 -36 -101 -23 -82 -57 -143 -102 -188 -50 -48 -94
-56 -156 -29 -70 31 -73 46 -22 127 24 39 60 114 79 168 19 54 44 113 56 132
41 67 127 95 178 59z m-2345 -51 c-4 -27 -8 -109 -7 -183 0 -109 4 -146 20
-192 11 -31 17 -55 12 -52 -14 9 -68 108 -70 129 -1 11 -4 -7 -7 -40 l-6 -60
-25 50 c-35 73 -40 207 -11 304 26 84 37 95 33 33 l-2 -47 21 53 c27 69 54 72
42 5z m3113 -18 l23 -60 -5 55 -4 55 22 -45 c17 -35 23 -68 26 -148 5 -110 -6
-170 -38 -212 l-19 -25 6 63 c3 34 3 62 0 62 -3 0 -13 -21 -21 -47 -9 -27 -27
-61 -41 -78 l-25 -30 15 44 c29 85 35 311 10 404 -6 25 -5 28 10 25 11 -2 26
-25 41 -63z m2974 44 c0 -7 -9 -43 -21 -81 -17 -58 -26 -73 -61 -98 -48 -35
-60 -32 -31 8 11 15 22 47 25 71 l4 43 -51 -5 -50 -6 39 19 c21 11 43 23 50
28 13 11 65 30 84 31 6 1 12 -4 12 -10z m260 -319 c21 -53 21 -57 5 -190 -8
-74 -18 -147 -20 -162 -6 -37 4 -35 45 7 18 19 37 32 42 29 10 -7 10 -105 -2
-219 -18 -179 -41 -379 -45 -385 -2 -4 -46 -24 -97 -45 -93 -38 -127 -59 -115
-71 3 -4 38 -9 77 -12 48 -3 73 -9 77 -19 8 -20 -38 -137 -110 -283 l-62 -125
-114 -5 c-142 -6 -152 -18 -52 -62 39 -18 71 -37 71 -43 0 -19 -166 -190 -263
-271 -109 -92 -184 -141 -327 -216 -58 -31 -166 -87 -240 -126 -74 -39 -254
-125 -399 -192 l-265 -121 -35 35 c-20 18 -45 38 -57 44 -11 6 -34 34 -52 62
l-32 51 34 16 c33 15 36 15 73 -7 114 -68 113 -68 58 -10 -27 29 -41 47 -30
41 33 -19 84 -50 113 -68 26 -17 27 -17 12 1 -8 11 -37 37 -63 58 -48 37 -48
38 -25 47 75 28 207 96 229 117 14 13 52 34 84 45 77 27 124 51 214 110 41 27
84 49 97 49 13 0 58 -16 101 -36 113 -52 143 -65 143 -60 0 3 -26 19 -57 37
-32 18 -80 47 -107 65 -70 47 -42 52 99 19 64 -15 119 -25 122 -21 4 3 0 6 -8
6 -9 0 -46 16 -85 35 -38 19 -77 35 -86 35 -24 0 -23 12 2 27 43 28 273 217
349 289 45 42 107 112 138 157 l56 80 131 -6 c120 -5 127 -4 81 8 -27 7 -63
18 -78 24 -16 6 -41 11 -57 11 -16 0 -32 5 -35 10 -8 12 -19 10 110 25 l110
12 -84 2 c-46 0 -81 4 -77 9 4 4 51 12 104 18 91 10 93 11 36 13 -34 0 -82 4
-107 7 l-45 6 59 117 c61 121 89 196 51 136 -10 -16 -43 -74 -72 -127 -79
-146 -177 -288 -270 -393 -46 -52 -87 -95 -91 -95 -4 0 -10 12 -12 28 -4 24
-4 23 -6 -7 0 -19 -9 -43 -18 -54 -17 -18 -18 -18 -29 25 l-12 43 2 -54 c2
-96 -30 -62 -47 49 -3 14 -5 -14 -6 -62 l-1 -86 -87 -69 c-105 -82 -226 -168
-343 -243 -79 -50 -444 -240 -462 -240 -4 0 -8 12 -8 28 0 52 -16 54 -29 2
-26 -102 -39 -50 -23 89 6 44 11 55 30 62 22 8 23 7 17 -44 -3 -37 -2 -45 4
-27 5 14 9 39 10 56 1 29 8 35 64 64 97 51 263 152 369 227 145 102 382 296
478 393 153 152 397 488 471 645 43 93 134 353 186 534 33 116 36 139 41 296
l5 170 63 -130 c35 -71 73 -155 84 -185z m-9206 259 l51 -30 -47 7 -46 6 5
-43 c4 -24 15 -56 26 -71 29 -39 16 -44 -31 -13 -32 21 -44 38 -61 89 -31 91
-29 100 16 91 20 -3 59 -20 87 -36z m-210 -354 c77 -274 202 -599 272 -713
104 -165 344 -465 455 -566 66 -60 251 -208 387 -308 91 -69 304 -199 420
-258 63 -32 82 -47 83 -63 0 -12 5 -31 10 -42 7 -15 8 -11 5 18 -5 40 0 44 28
24 14 -10 20 -35 27 -102 12 -114 -2 -129 -29 -33 -20 73 -20 73 -21 28 -1
-25 -5 -50 -9 -57 -9 -15 -130 38 -327 141 -232 122 -574 360 -576 400 -1 12
-1 57 0 101 l0 80 -13 -72 c-8 -39 -17 -76 -21 -82 -12 -20 -25 -1 -26 37 -1
23 -3 29 -6 15 -9 -49 -42 -15 -45 46 -1 37 -2 40 -5 14 -2 -18 -10 -33 -17
-33 -7 0 -40 28 -72 63 -101 105 -200 244 -318 447 -37 63 -65 104 -61 90 9
-34 58 -135 94 -196 l31 -51 -73 -12 c-39 -7 -79 -14 -87 -16 -8 -1 17 -3 55
-4 84 -2 128 -21 48 -21 -28 0 -55 -4 -58 -10 -4 -6 19 -10 62 -10 76 0 115
-8 107 -21 -3 -5 -17 -9 -32 -9 -15 0 -54 -9 -87 -20 -33 -11 -73 -22 -89 -25
-53 -11 -21 -13 54 -5 41 5 102 9 135 9 l60 0 55 -80 c61 -90 204 -220 397
-362 108 -79 126 -97 101 -97 -6 0 -41 -15 -77 -34 -36 -18 -83 -39 -104 -46
-72 -23 -31 -20 54 4 233 66 256 58 107 -38 -56 -36 -100 -66 -96 -66 4 0 53
22 110 50 57 27 112 50 124 50 11 0 69 -29 129 -65 59 -36 129 -71 155 -79 57
-17 102 -40 118 -59 7 -8 66 -38 131 -67 l120 -52 -47 -38 c-85 -68 -105 -103
-25 -44 17 13 36 24 41 24 5 0 17 9 27 20 10 11 23 20 29 20 6 0 -16 -28 -49
-61 -43 -44 -50 -55 -25 -37 19 14 56 38 83 53 43 25 50 26 80 14 17 -7 33
-14 35 -15 10 -7 -57 -88 -112 -137 l-64 -56 -98 43 c-55 24 -173 76 -264 116
-283 124 -705 342 -805 417 -99 74 -335 300 -335 321 0 7 29 27 65 43 112 53
98 70 -53 67 -97 -2 -105 -1 -120 20 -28 37 -163 330 -169 366 l-5 33 78 9
c43 5 79 14 81 21 3 7 -40 29 -106 54 l-109 42 -12 86 c-6 47 -18 131 -26 186
-18 124 -30 345 -18 345 4 0 25 -17 46 -37 l38 -37 0 30 c0 35 -28 240 -36
267 -8 25 9 71 89 251 l72 160 6 -165 c4 -106 12 -186 23 -224z m2032 349 c-9
-34 -9 -235 0 -257 5 -15 -3 -17 -64 -17 -48 0 -75 5 -85 14 -19 19 -29 115
-21 189 9 82 26 97 110 97 l66 0 -6 -26z m1974 20 c0 -3 -5 -14 -10 -25 -10
-18 -25 -19 -374 -19 -323 0 -365 -2 -370 -16 -17 -45 -26 -44 339 -44 190 0
345 -4 345 -8 0 -29 -29 -32 -357 -32 l-333 0 0 -36 c0 -77 -13 -74 302 -74
280 0 281 0 263 -20 -17 -19 -31 -20 -327 -20 l-308 0 -12 28 c-16 39 -16 200
1 240 l13 32 414 0 c228 0 414 -3 414 -6z m2032 -16 c17 -31 17 -225 0 -255
l-13 -23 -324 0 c-179 0 -325 2 -325 4 0 2 3 11 6 20 5 14 39 16 279 16 211 0
275 3 283 13 6 7 14 32 18 55 l7 42 -277 0 c-274 0 -276 0 -264 20 12 19 24
20 270 20 272 0 269 -1 252 44 -5 14 -36 16 -245 16 l-239 0 0 25 0 25 280 0
c279 0 279 0 292 -22z m1279 3 c23 -18 24 -25 24 -136 0 -139 -4 -145 -100
-145 l-60 0 -1 150 0 150 57 0 c41 0 63 -5 80 -19z m-2736 -186 c109 -17 165
-32 165 -45 0 -5 -14 -22 -30 -39 -53 -53 -137 -54 -219 -3 -51 31 -76 77 -51
92 19 12 18 12 135 -5z m4559 -24 c3 -5 -3 -31 -13 -57 -11 -27 -52 -143 -92
-259 -88 -257 -148 -385 -279 -603 -193 -319 -388 -548 -626 -733 -82 -64
-187 -142 -234 -174 l-85 -57 55 52 c30 29 96 84 146 121 102 76 333 310 448
453 131 163 324 475 389 629 39 94 186 511 196 559 5 21 6 40 3 43 -3 3 -30 5
-61 5 -54 1 -55 1 -31 15 28 16 175 21 184 6z m-8854 -26 c17 -9 30 -17 30
-18 0 -1 -26 -2 -57 -2 l-58 0 1 -40 c1 -22 21 -92 46 -155 24 -63 66 -173 93
-245 56 -151 91 -224 182 -378 94 -159 189 -297 281 -407 98 -118 341 -363
405 -410 118 -86 224 -169 242 -190 24 -28 15 -23 -90 48 -249 170 -386 284
-515 428 -129 143 -201 236 -294 379 -165 253 -226 371 -316 615 -29 80 -72
195 -95 257 -30 79 -39 115 -32 122 17 17 143 13 177 -4z m3414 -130 c-19 -46
-18 -140 3 -201 25 -74 136 -252 365 -583 44 -62 78 -121 76 -130 -2 -9 -60
65 -138 179 -196 283 -307 465 -330 539 -33 105 -22 231 20 231 18 0 18 -2 4
-35z m-1719 -77 c41 -316 166 -620 315 -766 49 -48 147 -108 158 -97 7 7 -36
57 -76 86 -117 86 -244 310 -306 539 -27 102 -60 280 -53 287 3 2 19 -17 36
-42 22 -33 37 -74 52 -148 56 -271 149 -470 290 -621 200 -216 254 -255 366
-264 53 -4 223 22 256 40 10 5 21 7 24 5 8 -9 -97 -66 -153 -83 l-51 -17 779
-1361 c428 -748 774 -1362 768 -1364 -6 -2 -8 -8 -4 -13 7 -12 91 -11 99 1 4
6 14 8 24 5 9 -3 172 -7 361 -9 223 -3 393 -10 480 -20 74 -8 178 -17 232 -20
53 -2 100 -6 105 -8 7 -5 73 -9 133 -10 14 0 30 -3 35 -8 6 -4 35 -11 65 -15
30 -4 118 -17 195 -30 77 -13 172 -26 210 -30 39 -4 81 -13 95 -20 14 -7 63
-20 110 -30 188 -37 705 -165 785 -195 11 -4 83 -28 160 -53 175 -57 376 -129
435 -155 47 -21 120 -85 120 -104 0 -6 7 -19 16 -29 12 -13 13 -22 5 -36 -5
-11 -11 -37 -13 -59 -3 -24 -13 -49 -26 -62 -12 -12 -22 -26 -22 -30 0 -5 -25
-37 -55 -72 -49 -57 -73 -102 -44 -84 7 4 7 -1 -1 -16 -8 -15 -14 -19 -19 -11
-5 8 -17 -3 -35 -30 -22 -33 -25 -43 -14 -50 8 -5 9 -9 2 -9 -18 0 -25 -27
-30 -105 -3 -38 -9 -92 -15 -118 -12 -65 -12 -69 8 -65 10 2 18 12 18 23 0 21
2 21 48 10 39 -10 33 9 -8 24 -19 7 -35 16 -35 21 0 5 19 3 41 -5 52 -19 65
-19 50 -2 -6 8 -30 20 -53 27 -24 7 -37 15 -30 17 7 3 36 -7 64 -21 28 -15 53
-24 55 -22 3 3 -18 16 -45 30 -68 35 -73 46 -19 46 29 0 47 -5 50 -14 3 -8 20
-17 37 -21 17 -4 43 -17 58 -29 15 -13 47 -33 72 -46 25 -12 56 -32 70 -44 14
-13 63 -50 110 -84 47 -33 96 -71 110 -84 13 -12 29 -23 35 -23 5 0 11 -10 13
-23 3 -21 1 -22 -17 -13 -11 6 -21 11 -23 11 -8 0 -6 -40 3 -45 14 -9 11 -28
-5 -22 -8 3 -13 -1 -12 -11 1 -14 -7 -17 -43 -15 -42 2 -43 2 -26 -17 10 -11
13 -20 7 -20 -6 0 -14 5 -17 10 -10 17 -25 11 -18 -7 5 -13 2 -15 -15 -11 -26
7 -29 -7 -5 -20 14 -9 14 -11 -6 -22 -13 -6 -32 -10 -42 -7 -16 4 -19 1 -14
-14 6 -19 5 -19 -30 -4 -52 21 -54 19 -15 -16 23 -20 28 -28 15 -23 -11 3 -31
9 -45 11 l-25 5 25 -22 25 -22 -34 6 -34 6 19 -21 19 -22 -27 7 c-34 8 -36 -5
-5 -28 24 -19 17 -17 -25 4 -16 7 -31 10 -35 5 -5 -4 -2 -10 5 -12 32 -12 63
-48 56 -66 -5 -15 -14 -18 -43 -13 l-36 6 30 -26 c30 -26 21 -29 -27 -9 -11 4
-18 3 -18 -3 0 -6 9 -14 20 -17 39 -12 66 -55 35 -55 -8 0 -15 4 -15 9 0 9
-61 51 -74 51 -19 0 0 -22 45 -50 42 -27 49 -37 44 -54 -4 -12 -7 -29 -8 -38
-1 -9 -5 -15 -9 -12 -4 2 -11 -4 -17 -13 -9 -16 -13 -17 -43 -4 -161 67 -367
111 -522 111 -73 0 -165 -24 -173 -46 -6 -16 42 -74 61 -74 5 0 40 -16 78 -35
37 -20 80 -40 94 -46 25 -9 26 -8 13 7 -13 16 -12 16 8 6 12 -7 27 -12 34 -12
23 0 -12 29 -85 70 -91 51 -78 51 30 1 113 -53 112 -26 -1 32 -27 15 -46 26
-42 27 4 0 30 -12 58 -26 28 -14 60 -24 72 -22 20 3 19 6 -13 27 -26 17 -29
21 -11 16 21 -6 23 -5 17 11 -6 17 -5 17 7 4 35 -36 48 -137 26 -199 -8 -21
-15 -29 -23 -23 -6 5 -49 24 -96 42 -129 50 -238 107 -250 131 -9 15 -9 33 0
69 10 40 9 58 -4 102 -20 71 -22 105 -7 149 15 46 42 54 91 29 35 -18 38 -23
44 -76 3 -31 4 -59 1 -62 -3 -3 -5 6 -5 20 0 14 -7 31 -15 38 -13 11 -15 8
-14 -16 0 -16 4 -47 8 -69 7 -38 10 -37 24 5 3 9 6 6 6 -8 2 -43 26 -17 32 34
l6 49 1 -53 c2 -39 6 -54 19 -59 9 -4 19 -1 21 5 5 17 22 15 22 -2 0 -22 11
-25 56 -17 29 6 47 4 59 -6 11 -7 30 -13 44 -13 14 0 35 -7 45 -15 11 -8 29
-15 41 -15 12 0 53 -11 91 -23 75 -26 164 -41 164 -29 0 24 -119 106 -270 189
-156 85 -382 182 -574 247 -210 71 -266 95 -303 129 -31 28 -30 79 2 134 22
36 30 42 50 37 26 -6 37 7 61 80 9 27 12 31 8 11 -3 -16 -7 -38 -10 -48 -8
-25 23 -33 46 -12 11 10 20 13 20 7 0 -20 39 1 49 27 9 24 9 24 10 4 1 -16 7
-23 21 -23 24 0 29 11 41 83 8 50 8 49 3 -14 -4 -56 -2 -68 13 -73 9 -4 21 -2
26 3 7 7 15 7 23 0 9 -7 19 -7 31 -1 11 7 24 7 36 0 10 -5 26 -7 34 -4 9 4 24
-1 35 -11 16 -14 23 -15 39 -5 15 10 19 10 19 -2 0 -19 55 -31 146 -31 57 0
76 4 93 19 12 11 20 26 19 34 -2 8 -46 32 -98 54 -133 54 -458 167 -560 194
-47 13 -146 41 -220 62 -74 22 -182 49 -240 60 -58 11 -148 29 -200 40 -52 11
-126 25 -165 31 -38 6 -121 20 -184 31 -271 47 -542 72 -1056 97 -138 6 -619
-10 -820 -28 -193 -17 -389 -46 -393 -58 -2 -7 -10 -8 -20 -2 -10 5 -38 5 -67
0 -28 -4 -111 -17 -185 -29 -74 -11 -166 -29 -205 -40 -38 -10 -106 -26 -151
-34 -127 -24 -592 -151 -774 -212 -147 -50 -320 -114 -579 -216 -91 -36 -113
-56 -92 -82 17 -20 41 -20 111 0 61 17 82 21 123 23 22 1 27 6 28 29 0 26 1
26 9 5 9 -23 34 -31 44 -14 3 4 17 6 31 3 19 -3 25 0 26 14 0 15 2 15 6 4 13
-34 43 -39 43 -7 0 16 3 18 9 9 5 -8 21 -12 37 -10 26 3 29 6 27 38 l-1 35 15
-29 c24 -46 39 -17 19 40 -9 26 -14 50 -11 52 5 6 35 -61 35 -80 1 -18 25 -48
39 -48 13 0 14 -6 -4 60 -21 77 -18 84 8 20 21 -52 24 -55 60 -58 43 -4 44 -2
17 79 -12 34 -19 66 -17 72 2 6 16 -28 30 -75 29 -91 38 -106 55 -85 7 8 4 28
-12 67 -29 70 -39 110 -28 110 5 0 25 -41 44 -92 20 -51 41 -94 48 -96 17 -6
9 25 -24 103 -26 62 -32 100 -18 109 5 3 18 -33 30 -81 14 -55 36 -110 63
-155 95 -157 84 -204 -61 -244 -126 -34 -318 -98 -360 -119 -25 -12 -68 -30
-96 -39 -80 -26 -258 -124 -410 -226 -155 -104 -204 -145 -204 -172 0 -27 44
-23 204 17 77 19 151 35 166 35 14 0 35 7 46 15 18 14 18 14 -11 16 l-30 1 32
9 c18 5 35 14 39 21 5 8 -14 10 -70 5 -94 -7 -95 -2 -2 13 92 15 103 24 36 30
l-55 6 63 8 c71 10 87 31 17 24 -61 -7 -48 8 15 16 53 7 64 21 28 36 -22 8
-22 9 4 9 15 1 30 6 33 11 4 7 -9 9 -37 5 l-43 -6 35 20 c58 33 62 34 69 24 3
-6 31 -13 61 -17 76 -9 88 -18 73 -53 -39 -95 -38 -91 -24 -140 26 -90 25
-116 -5 -152 -30 -36 -263 -193 -275 -186 -26 17 -29 180 -4 203 5 4 5 -1 2
-10 -4 -12 -1 -18 8 -18 8 0 15 -7 15 -15 0 -8 7 -15 15 -15 8 0 15 -4 15 -9
0 -5 -7 -11 -15 -15 -8 -3 -15 -15 -15 -27 0 -27 6 -25 127 47 88 52 128 92
109 112 -13 12 -228 8 -291 -7 -33 -7 -94 -24 -135 -37 -99 -32 -160 -39 -202
-25 -28 9 -42 24 -73 80 -20 38 -64 96 -96 128 l-60 60 68 66 c37 37 75 69 85
73 20 6 25 24 7 24 -19 0 -149 -110 -161 -136 -13 -27 -26 -31 -34 -10 -3 9
27 45 78 94 46 44 80 83 77 87 -10 9 -148 -112 -161 -140 -13 -29 -35 -23
-112 34 -66 49 -99 89 -90 110 3 9 7 23 8 31 2 8 15 21 29 28 15 7 27 21 27
32 0 11 12 26 30 35 28 15 54 47 45 57 -7 7 50 59 67 62 8 1 30 14 47 29 18
15 37 27 43 27 6 0 8 7 4 15 -3 10 1 15 13 15 20 0 99 54 118 80 7 10 43 30
80 46 37 15 72 31 77 36 6 4 19 8 30 8 13 0 -7 -16 -49 -39 -38 -22 -81 -51
-94 -65 -21 -23 -22 -26 -8 -41 14 -14 21 -12 69 15 l53 31 -35 -30 c-69 -59
-82 -72 -77 -77 3 -3 16 0 29 7 23 12 23 12 4 -10 -27 -29 -2 -28 49 4 61 37
88 32 34 -7 -80 -57 -73 -78 10 -27 28 18 54 29 57 26 3 -3 -12 -15 -33 -26
-22 -11 -45 -27 -52 -35 -21 -25 14 -21 51 5 42 30 45 17 3 -15 -33 -25 -45
-46 -27 -46 5 0 39 18 76 41 37 22 74 39 83 37 11 -2 -9 -18 -49 -42 -57 -33
-92 -66 -71 -66 3 0 54 25 113 56 60 31 114 54 121 52 6 -2 -20 -21 -59 -41
-40 -21 -77 -47 -82 -58 -16 -29 8 -24 70 16 30 19 59 35 63 35 5 0 29 14 53
31 25 17 48 29 50 26 3 -3 -41 -36 -97 -73 -57 -37 -97 -70 -91 -72 7 -2 54
21 105 51 109 65 157 90 163 85 2 -2 -27 -21 -64 -42 -68 -39 -122 -82 -122
-99 0 -5 15 1 33 12 45 30 277 144 282 139 3 -2 -28 -21 -68 -43 -87 -46 -227
-137 -227 -147 0 -17 29 -6 100 39 83 51 287 153 309 153 11 0 11 -3 1 -15 -7
-8 -22 -15 -33 -15 -25 0 -254 -123 -282 -152 l-20 -20 25 7 c14 4 37 16 53
27 25 18 143 69 156 68 3 -1 -11 -10 -31 -21 -21 -11 -38 -26 -38 -35 0 -19
18 -14 113 28 37 17 70 28 74 25 3 -4 1 -7 -6 -7 -7 0 -72 -33 -144 -72 -151
-84 -149 -106 2 -34 53 25 157 66 231 91 228 78 221 75 218 98 -10 66 -294
113 -533 87 -214 -22 -316 -23 -355 -3 -55 29 -64 57 -45 154 8 45 15 94 15
110 0 34 24 58 96 96 52 27 68 43 42 43 -7 0 -39 -13 -70 -29 -32 -16 -58 -25
-58 -20 0 6 13 15 29 20 16 6 32 17 35 25 6 17 -8 18 -35 4 -10 -6 -19 -7 -19
-2 0 4 22 21 50 37 56 33 60 42 9 21 -19 -7 -45 -17 -59 -21 -22 -7 -23 -6
-11 9 12 14 10 16 -14 16 -41 0 -26 20 40 54 33 16 54 31 47 34 -17 5 -78 -16
-92 -34 -7 -7 -19 -14 -26 -14 -26 0 -14 19 26 42 22 13 40 26 40 31 0 11 -10
8 -46 -14 -19 -11 -42 -19 -51 -17 -13 3 -5 11 27 28 30 16 40 25 28 28 -9 2
-31 -4 -48 -13 -18 -9 -34 -14 -37 -12 -2 3 23 17 56 32 34 15 61 32 61 37 0
13 -36 1 -86 -28 l-40 -24 -62 58 c-76 71 -106 133 -100 210 3 35 11 59 24 71
20 19 276 131 299 131 8 0 19 9 24 19 6 10 25 24 43 31 l33 11 -37 20 c-38 20
-74 60 -102 116 -9 18 -16 33 -16 35 0 2 53 3 117 3 65 1 149 5 187 9 83 11
83 -2 -1 -34 -39 -15 -80 -21 -139 -21 -46 -1 -84 -3 -84 -5 0 -5 101 -51 164
-75 48 -18 50 -18 110 2 34 11 66 26 71 33 13 16 105 48 105 36 0 -5 17 -4 38
1 64 17 68 19 54 28 -8 5 20 16 72 30 47 12 90 29 97 37 12 14 62 44 74 44 15
0 2 -28 -17 -38 l-23 -11 22 0 c12 -1 25 4 28 10 4 6 13 8 20 5 7 -2 79 12
158 34 80 21 169 41 199 45 29 4 64 14 78 23 14 10 39 17 55 18 53 1 349 56
377 70 15 8 44 13 65 12 36 -1 145 11 278 32 33 5 91 12 129 16 38 3 76 12 83
20 17 17 37 19 27 2 -5 -8 22 -9 107 -4 167 10 223 16 231 24 5 6 -402 738
-428 771 -5 6 -97 -98 -112 -127 -8 -13 -17 -54 -21 -91 l-7 -66 -47 94 c-26
52 -47 103 -47 113 0 10 -6 27 -12 38 -15 24 2 61 57 125 l35 40 -15 -50 c-18
-60 -20 -151 -3 -161 13 -8 79 63 109 119 l20 38 -63 112 -63 112 -5 -41 c-3
-22 -18 -60 -33 -85 -33 -55 -86 -113 -95 -104 -13 12 -7 110 11 169 16 57 16
61 -1 85 l-17 26 -3 -35 c-4 -65 -13 -101 -22 -95 -5 3 -12 -5 -16 -19 -3 -14
-12 -30 -20 -37 -12 -9 -14 -4 -15 32 -1 45 -3 42 -14 -23 -7 -44 -25 -51 -26
-10 l-1 27 -10 -30 c-13 -35 -29 -49 -40 -32 -6 9 -8 9 -8 0 0 -20 -30 -15
-31 5 0 13 -3 12 -11 -5 -11 -24 -38 -32 -38 -12 0 8 -4 8 -12 2 -7 -6 -33
-11 -56 -12 l-44 -1 26 31 c14 16 38 69 52 117 14 48 34 96 45 107 18 20 53
95 44 95 -2 0 -22 -19 -43 -41 -21 -23 -50 -43 -65 -45 -15 -3 -39 -7 -54 -10
-54 -11 -203 -14 -203 -4 0 5 -7 7 -15 4 -8 -4 -15 -1 -15 5 0 6 12 16 28 22
15 6 37 20 49 31 12 11 42 30 67 42 l46 22 -93 1 c-77 0 -103 4 -145 24 l-52
24 41 65 c37 58 85 152 103 204 4 12 -8 5 -36 -20 -74 -68 -128 -88 -248 -92
-68 -2 -116 1 -135 9 l-30 12 63 13 c77 17 95 26 126 67 25 33 44 87 31 87 -5
0 -27 -16 -51 -35 -23 -19 -51 -35 -61 -35 -22 0 -145 98 -141 112 2 5 28 11
58 13 73 5 183 39 248 78 48 29 65 47 43 47 -5 0 -38 -11 -75 -25 -64 -24 -67
-24 -109 -8 -23 9 -57 27 -75 39 -46 30 -164 135 -159 141 3 2 38 -5 78 -17
118 -32 191 -24 247 29 35 35 26 40 -32 19 l-54 -20 -40 27 c-23 15 -77 40
-122 55 -45 16 -83 30 -86 32 -2 3 19 15 46 27 49 22 120 92 120 118 0 10 -8
8 -27 -6 -44 -32 -423 -79 -423 -53 0 5 9 17 20 27 20 18 70 137 70 167 0 10
11 28 25 40 13 13 28 39 31 58 l7 35 -24 -22 c-51 -46 -107 -48 -226 -8 -134
46 -217 106 -228 168 -10 49 -2 55 33 25 38 -32 111 -52 156 -44 46 9 79 49
106 131 33 98 67 112 151 59 66 -41 210 -186 287 -290 91 -120 269 -411 374
-609 120 -225 184 -322 273 -411 44 -44 100 -90 125 -102 41 -19 169 -47 178
-38 2 2 -176 318 -396 702 l-399 699 -59 33 c-32 19 -83 53 -113 78 -29 24
-60 44 -68 44 -22 0 -85 35 -141 79 -163 129 -316 470 -357 796 -4 28 -9 58
-12 68 -3 13 2 17 20 17 23 0 26 -5 32 -52z m5152 30 c-3 -8 -6 -5 -6 6 -1 11
2 17 5 13 3 -3 4 -12 1 -19z m2449 -875 c-3 -10 -10 -38 -16 -63 -7 -24 -18
-49 -24 -55 -7 -5 -19 -26 -26 -45 -32 -83 -130 -278 -159 -317 l-31 -43 -88
0 c-48 0 -105 6 -127 12 -38 12 -33 13 82 18 67 3 127 10 132 15 16 16 129
250 162 335 35 93 35 114 -4 118 -15 2 -27 10 -27 17 0 10 17 15 58 18 31 2
61 4 65 5 5 1 6 -6 3 -15z m-2911 -19 c-27 -23 -117 -74 -130 -74 -16 0 79 73
111 84 53 20 53 19 19 -10z m-6914 -4 c36 0 49 -4 49 -14 0 -9 -12 -16 -27
-18 -37 -4 -40 -27 -12 -96 26 -65 156 -331 170 -349 6 -6 60 -14 127 -19 111
-7 115 -8 82 -20 -19 -7 -74 -13 -121 -13 l-86 -1 -36 54 c-39 59 -88 154
-137 266 -18 41 -39 79 -45 85 -11 8 -45 108 -45 130 0 4 7 4 16 1 9 -3 38 -6
65 -6z m2543 -84 c83 -59 289 -273 358 -372 70 -101 166 -262 248 -419 103
-197 199 -363 272 -475 l69 -105 -54 57 c-68 70 -185 254 -295 463 -186 352
-289 515 -416 657 -77 87 -193 194 -242 225 -10 6 -15 12 -10 12 5 1 36 -19
70 -43z m4726 27 c-14 -9 -86 -77 -161 -153 -181 -182 -243 -275 -466 -705
-126 -241 -203 -373 -277 -472 -85 -113 -87 -96 -4 37 47 74 136 234 198 355
144 279 258 478 331 574 77 103 271 300 339 345 30 20 57 36 60 35 3 0 -6 -7
-20 -16z m2680 -144 c12 -94 12 -273 0 -367 -11 -87 -51 -268 -82 -372 -18
-60 -31 -84 -70 -124 -26 -27 -48 -52 -48 -54 0 -2 23 -1 50 3 62 8 63 3 18
-100 l-32 -74 -65 -17 c-36 -9 -70 -21 -75 -25 -5 -4 12 -13 38 -20 25 -6 46
-17 46 -24 0 -24 -60 -93 -174 -200 -65 -61 -123 -113 -129 -117 -7 -3 -43 7
-81 23 -103 44 -122 38 -61 -21 19 -19 35 -38 35 -42 0 -14 -97 -52 -291 -116
-307 -101 -376 -121 -510 -152 -76 -17 -94 -18 -160 -7 l-74 13 135 38 c303
86 658 182 798 216 19 5 36 11 39 14 3 3 -6 25 -20 50 -17 30 -21 46 -14 49 9
3 9 10 0 25 -11 19 -10 20 15 12 15 -4 49 -17 75 -29 27 -12 58 -21 70 -21 27
0 247 223 247 251 0 10 -10 24 -22 30 -33 17 -33 17 -14 38 10 11 47 30 83 42
48 17 68 30 79 51 26 49 20 60 -31 56 -45 -3 -46 -2 -40 22 3 14 28 45 55 70
43 39 53 54 69 115 24 87 38 160 56 300 17 133 31 365 21 365 -4 0 -18 -24
-31 -52 l-25 -53 0 41 c0 24 13 72 29 110 16 38 36 87 45 108 22 53 34 38 46
-55z m-10095 4 c10 -26 31 -74 46 -105 17 -34 29 -73 29 -95 l-1 -38 -24 47
c-38 73 -45 69 -39 -24 7 -107 32 -330 44 -388 51 -246 49 -241 105 -295 49
-47 75 -82 75 -102 0 -4 -20 -7 -45 -5 -42 4 -45 2 -45 -21 0 -37 28 -62 95
-87 57 -20 95 -45 95 -60 0 -4 -11 -12 -25 -18 -14 -6 -25 -20 -25 -29 0 -16
181 -204 231 -241 16 -12 33 -7 189 55 12 5 11 2 -2 -13 -12 -14 -14 -24 -8
-30 7 -7 3 -24 -12 -51 -13 -23 -19 -45 -15 -49 4 -4 130 -38 280 -76 395 -98
628 -160 667 -175 8 -3 -16 -12 -55 -19 -59 -10 -82 -10 -143 2 -169 34 -728
204 -804 245 -18 10 -16 13 24 57 55 60 36 67 -57 21 -54 -26 -69 -30 -88 -21
-30 14 -239 207 -277 256 -16 21 -30 44 -30 51 0 7 21 18 46 24 26 7 43 16 38
20 -5 4 -39 16 -75 25 l-67 18 -31 74 c-43 102 -42 104 22 97 l52 -5 -52 52
c-43 43 -56 65 -76 129 -90 280 -119 512 -92 741 12 105 21 111 50 33z m9885
-298 c-13 -162 -32 -288 -61 -396 -20 -75 -21 -77 -89 -128 -108 -82 -109 -85
-22 -77 63 6 72 5 72 -9 0 -13 -15 -51 -25 -63 -2 -2 -47 -18 -101 -36 l-98
-33 47 -21 c28 -12 47 -27 47 -37 0 -19 -194 -222 -220 -230 -10 -3 -53 8 -96
25 -77 30 -104 36 -104 24 0 -3 16 -33 37 -65 21 -35 32 -63 27 -68 -5 -4 -40
-16 -79 -25 -38 -10 -99 -26 -135 -36 -36 -10 -119 -32 -185 -50 -220 -59
-609 -171 -700 -202 -196 -67 -386 -154 -458 -210 -21 -17 -40 -29 -42 -27 -2
2 -6 16 -10 32 -8 29 2 35 25 15 7 -7 4 -1 -7 14 -14 18 -19 36 -15 55 l5 27
39 -44 c43 -51 51 -43 13 12 -30 44 -30 44 -9 52 12 4 28 -6 52 -34 41 -49 55
-46 18 3 -33 42 -33 55 -1 63 18 4 33 0 48 -12 l22 -19 -20 23 c-16 20 -17 25
-5 32 22 14 31 12 59 -12 22 -20 23 -20 8 -2 -9 11 -17 25 -17 30 0 11 471
254 595 307 44 19 133 60 198 91 133 64 113 66 252 -24 57 -38 124 -75 100
-56 -11 9 -57 48 -102 88 l-81 72 81 44 c78 43 83 44 127 33 90 -21 94 -21 43
-1 -29 12 -53 24 -53 28 0 4 48 36 106 72 58 36 111 71 117 79 7 8 -24 -8 -68
-36 -128 -80 -220 -127 -380 -198 -82 -36 -153 -65 -157 -65 -5 0 -9 15 -9 33
-2 31 -2 31 -8 -6 l-6 -39 -240 -107 c-132 -59 -273 -124 -314 -144 -41 -21
-77 -37 -81 -37 -4 0 -3 25 2 56 5 31 7 62 5 68 -3 6 -8 -16 -12 -49 -9 -70
-20 -95 -42 -95 -14 0 -15 9 -10 67 4 37 10 70 14 74 28 26 489 242 718 336
152 62 480 230 594 303 111 72 183 142 313 305 123 155 202 271 246 365 36 74
36 75 40 40 2 -19 -1 -98 -8 -175z m-9689 100 c67 -143 340 -488 459 -582 127
-100 428 -256 717 -372 187 -75 431 -181 596 -260 l127 -61 0 -70 c0 -38 -2
-70 -5 -70 -2 0 -91 39 -197 86 -106 47 -247 108 -313 136 -66 28 -122 53
-125 57 -3 3 -14 8 -25 9 -26 5 -27 6 -35 49 l-8 38 -1 -32 c0 -18 -4 -33 -7
-33 -3 0 -67 25 -142 56 -149 60 -314 144 -432 218 -41 26 -61 35 -45 21 17
-15 76 -54 133 -87 56 -34 102 -65 102 -69 0 -4 -23 -15 -51 -24 -70 -24 -57
-27 22 -6 l66 18 81 -45 82 -44 -32 -27 c-18 -15 -60 -54 -93 -86 l-60 -58 45
29 c25 15 54 36 66 46 11 10 24 18 30 18 5 0 29 13 53 29 l43 29 97 -45 c53
-25 138 -62 190 -84 145 -60 631 -301 631 -312 0 -6 -8 -20 -17 -31 -15 -18
-14 -18 8 2 28 24 37 26 59 12 12 -7 11 -12 -5 -32 l-19 -23 23 22 c20 18 28
19 48 10 26 -12 25 -23 -9 -73 l-21 -31 -101 45 c-183 80 -484 169 -1084 318
-171 42 -276 73 -279 81 -3 8 11 40 30 71 24 38 31 58 23 60 -7 2 -48 -11 -92
-28 -43 -16 -86 -30 -95 -30 -22 0 -230 210 -227 229 2 9 23 25 47 37 l44 21
-100 32 c-81 26 -103 37 -112 57 -23 51 -17 56 55 48 84 -9 82 0 -16 75 -85
65 -87 70 -124 259 -32 162 -66 482 -52 482 3 0 24 -38 47 -85z m1997 -38 c8
-9 8 -25 0 -57 -9 -35 -13 -40 -19 -24 -11 27 -11 94 0 94 5 0 13 -6 19 -13z
m5682 -43 c0 -60 -14 -65 -24 -8 -6 31 4 64 20 64 2 0 4 -25 4 -56z m-5624
-18 c-3 -11 -6 -36 -6 -54 0 -20 -4 -31 -10 -27 -5 3 -10 31 -10 60 0 45 3 53
16 48 10 -4 14 -13 10 -27z m5573 -25 c2 -56 -13 -77 -23 -30 -10 50 -7 79 7
79 9 0 14 -16 16 -49z m-5532 -43 l-16 -53 4 60 c2 33 4 62 4 65 1 2 6 -1 12
-7 9 -9 8 -25 -4 -65z m5477 11 c4 -28 5 -53 2 -56 -6 -6 -34 90 -29 100 11
19 21 2 27 -44z m-5412 6 c-10 -73 -16 -95 -23 -95 -5 0 -9 27 -9 61 0 52 2
60 18 57 10 -2 16 -11 14 -23z m5365 -40 c1 -36 -3 -65 -8 -65 -5 0 -9 11 -9
24 0 12 -5 38 -11 56 -9 26 -9 34 2 41 23 14 24 12 26 -56z m1946 36 c16 -15
-207 -270 -311 -357 -123 -102 -317 -211 -572 -321 -225 -98 -180 -67 160 109
256 133 363 212 553 407 114 118 132 146 102 157 -8 4 -15 11 -15 16 0 11 70
2 83 -11z m-7254 0 c12 -8 13 -18 3 -63 -21 -90 -32 -92 -32 -5 0 77 3 84 29
68z m-1949 -14 c0 -8 -10 -18 -22 -24 -20 -9 -18 -13 49 -89 74 -84 194 -191
321 -286 48 -36 180 -111 352 -198 151 -76 270 -139 264 -140 -20 0 -325 130
-434 186 -142 72 -270 158 -357 239 -79 73 -263 277 -263 292 0 5 17 14 38 20
52 15 52 15 52 0z m7200 -58 c0 -80 -12 -83 -30 -9 -13 55 -9 80 15 80 12 0
15 -14 15 -71z m-5187 55 c13 -5 13 -12 0 -57 -8 -29 -18 -65 -23 -82 -6 -23
-8 -10 -9 51 -1 90 2 100 32 88z m57 -7 c0 -13 -33 -97 -37 -93 -11 10 10 96
23 96 8 0 14 -1 14 -3z m5067 -82 c2 -85 -1 -83 -32 27 -14 49 -11 61 15 56
12 -3 15 -20 17 -83z m-57 56 c0 -10 2 -34 5 -52 l5 -34 -19 40 c-24 49 -25
65 -6 65 8 0 15 -8 15 -19z m-5150 -175 c0 -11 -102 -76 -119 -76 -32 0 -34
19 -4 31 15 7 46 20 68 30 41 18 55 22 55 15z m5373 -44 c42 -17 47 -27 16
-35 -20 -6 -92 36 -120 69 -12 14 -9 14 26 -1 22 -10 57 -24 78 -33z m-5375
-28 c-19 -19 -31 -25 -45 -19 -15 6 -12 10 22 26 53 24 54 24 23 -7z m372 11
c-7 -8 -27 -16 -44 -16 -23 -1 -25 -3 -8 -6 35 -7 27 -33 -10 -34 -28 -1 -22
-5 37 -25 l70 -24 -52 5 c-30 3 -54 1 -58 -5 -3 -5 -1 -10 4 -10 6 0 11 -4 11
-10 0 -5 -20 -8 -47 -5 l-48 5 52 -18 c29 -10 56 -21 60 -26 10 -11 -67 1
-117 18 -57 20 -49 10 15 -19 54 -23 75 -42 35 -31 -11 3 -30 8 -42 12 -22 5
-22 5 -4 -10 22 -18 22 -19 -19 -35 -27 -10 -25 -11 22 -7 42 4 54 2 62 -12 9
-15 11 -14 19 8 11 27 17 19 25 -30 3 -15 5 -8 6 18 1 52 21 56 21 5 1 -36 1
-37 13 -15 16 28 27 19 28 -22 0 -24 2 -27 8 -13 6 17 8 17 20 3 11 -13 11
-19 1 -31 -7 -8 -18 -15 -25 -15 -7 0 -15 -6 -18 -13 -7 -19 -75 -37 -138 -37
-65 0 -176 23 -216 44 -55 28 -249 293 -230 313 3 2 38 -7 79 -22 88 -32 190
-43 242 -25 20 6 57 27 82 46 44 34 92 51 148 53 24 1 27 -1 16 -14z m4605 -6
c21 -6 53 -22 70 -35 17 -13 53 -33 80 -45 60 -27 130 -21 248 21 45 16 83 27
85 25 8 -7 -69 -142 -108 -190 -22 -28 -54 -67 -70 -87 -38 -46 -127 -77 -245
-85 -81 -6 -155 12 -155 36 0 6 -6 11 -14 11 -7 0 -19 7 -26 15 -9 11 -6 21
17 50 l28 35 6 -27 7 -28 1 30 c2 54 19 63 25 14 12 -89 13 -93 15 -31 1 60
20 91 22 35 0 -28 1 -28 11 -5 10 20 16 22 62 16 37 -4 47 -3 36 5 -8 6 -24
11 -34 11 -19 0 -19 0 0 21 19 21 19 22 -3 15 -62 -17 -63 -14 -3 19 36 20 56
33 45 30 -75 -25 -112 -35 -128 -35 -23 0 -12 20 11 20 9 1 31 7 47 16 l30 14
-42 -5 c-26 -3 -43 -1 -43 5 0 5 6 10 13 10 8 0 7 4 -3 10 -8 6 -32 8 -52 4
-56 -9 -46 2 19 23 52 16 54 18 28 23 -35 6 -46 29 -13 31 16 1 12 4 -11 8
-40 7 -55 31 -19 31 13 0 41 -5 63 -11z m314 0 c34 -12 42 -29 14 -29 -19 0
-75 39 -57 40 6 0 25 -5 43 -11z m-5219 -14 c-14 -8 -32 -14 -40 -14 -8 0 -1
7 15 14 39 18 57 18 25 0z m5156 -10 c17 -13 16 -14 -13 -4 -34 11 -42 19 -20
19 7 0 22 -7 33 -15z m304 -30 c0 -2 -9 -9 -20 -15 -16 -9 -18 -8 -14 5 5 13
34 22 34 10z m-5115 -23 c-3 -3 -11 0 -18 7 -9 10 -8 11 6 5 10 -3 15 -9 12
-12z m-681 -105 c16 -125 18 -162 7 -151 -12 11 -51 153 -51 186 0 11 6 15 19
11 14 -3 21 -17 25 -46z m5835 1 c-19 -108 -22 -124 -31 -140 -16 -32 -25 -19
-17 25 4 23 8 65 9 94 0 39 4 55 17 62 26 14 31 6 22 -41z m-5778 10 c50 -24
69 -60 72 -142 2 -42 0 -73 -4 -69 -8 9 -38 108 -49 163 -6 26 -8 11 -9 -54
-1 -83 -11 -112 -17 -49 -1 16 -11 58 -22 96 -22 72 -19 78 29 55z m5724 -20
c-4 -18 -14 -52 -22 -76 -7 -23 -13 -48 -12 -55 3 -22 -1 -37 -8 -37 -5 0 -6
22 -5 49 2 27 0 57 -5 66 -7 12 -14 -2 -28 -59 -9 -42 -21 -78 -25 -81 -4 -2
-6 28 -5 68 1 60 5 78 26 106 24 32 24 32 30 9 7 -22 7 -22 8 4 1 25 12 36 39
37 10 1 12 -7 7 -31z m-5587 -174 c-3 -45 -4 -47 -14 -24 -7 14 -15 45 -19 70
l-7 45 22 -21 c17 -17 21 -30 18 -70z m5442 24 c-16 -67 -22 -77 -31 -52 -9
26 0 75 19 97 23 26 26 14 12 -45z m-4839 -14 l24 -26 -25 7 c-32 10 -51 25
-44 36 9 15 19 11 45 -17z m4264 -8 c12 -12 11 -14 -8 -14 -12 0 -33 -3 -47
-7 -25 -8 -25 -8 -6 13 22 25 42 28 61 8z m-4805 -44 c0 -15 -2 -15 -10 -2
-13 20 -13 33 0 25 6 -3 10 -14 10 -23z m5303 -2 c-3 -11 -9 -20 -15 -20 -5 0
-4 9 2 20 6 11 12 20 14 20 2 0 2 -9 -1 -20z m-4869 -27 c17 -14 27 -24 21
-21 -5 2 -25 11 -42 18 -18 8 -33 18 -33 22 0 16 23 8 54 -19z m-373 4 c-1
-12 -15 -9 -19 4 -3 6 1 10 8 8 6 -3 11 -8 11 -12z m325 -13 c25 -15 42 -29
39 -32 -7 -7 -105 39 -105 50 0 14 20 9 66 -18z m4524 18 c0 -7 -63 -42 -76
-42 -3 0 8 11 23 25 28 24 53 32 53 17z m-4650 -25 c13 -10 13 -10 1 6 -23 30
24 21 75 -14 51 -35 52 -50 3 -25 -43 22 -46 20 -19 -9 13 -14 22 -26 19 -28
-24 -17 -90 -55 -114 -66 l-30 -14 25 -7 c16 -4 28 -2 33 7 15 24 27 14 27
-23 0 -46 16 -36 24 15 7 44 26 65 26 29 0 -47 17 -51 24 -6 7 41 8 42 20 20
14 -26 26 -19 26 15 0 13 4 23 8 23 13 0 32 -69 21 -76 -18 -11 -8 -29 41 -75
l49 -46 -87 -89 c-113 -115 -164 -187 -66 -93 38 37 85 75 104 85 19 11 39 25
43 32 13 19 27 14 28 -10 0 -16 4 -10 12 16 17 54 33 56 30 4 l-3 -43 13 39
c13 42 37 60 38 29 0 -15 2 -15 11 5 16 32 31 27 26 -8 -5 -33 -1 -32 16 2 6
12 17 23 25 26 10 3 11 -3 6 -29 -10 -44 -13 -49 -34 -49 -42 0 -120 -32 -160
-67 -24 -20 -86 -101 -137 -179 -76 -115 -112 -159 -187 -228 -115 -106 -167
-145 -189 -146 -24 0 -23 5 7 44 44 58 56 120 53 275 -4 167 -12 150 157 301
64 58 122 114 127 124 10 18 8 18 -23 12 -118 -26 -315 -23 -387 5 -26 11 -26
12 -7 22 11 6 63 55 115 108 52 52 102 98 110 102 20 8 81 -2 100 -16z m4710
15 c0 -9 -85 -52 -103 -52 -6 0 8 14 33 30 44 30 70 38 70 22z m275 -2 c-3 -5
-10 -10 -16 -10 -5 0 -9 5 -9 10 0 6 7 10 16 10 8 0 12 -4 9 -10z m-216 -17
c-13 -16 -13 -16 11 0 13 9 40 17 59 17 31 0 45 -11 126 -94 49 -52 103 -99
118 -105 70 -27 0 -51 -168 -57 -66 -3 -140 -1 -165 3 l-45 8 -3 60 c-2 53 0
58 12 42 7 -9 17 -36 22 -60 l8 -42 4 43 c3 43 15 54 30 27 6 -12 14 -13 32
-7 21 8 17 12 -46 46 -38 21 -71 40 -73 42 -3 2 6 15 19 29 l24 26 -38 -16
c-53 -23 -55 -13 -4 24 49 34 101 44 77 14z m1196 -3 c-3 -5 -12 -10 -18 -10
-7 0 -6 4 3 10 19 12 23 12 15 0z m-7140 -18 c-3 -3 -11 0 -18 7 -9 10 -8 11
6 5 10 -3 15 -9 12 -12z m813 9 c-1 -6 -38 -48 -82 -95 -77 -85 -102 -99 -125
-72 -9 11 0 23 45 62 95 82 172 131 162 105z m5639 -90 c40 -31 72 -61 73 -66
0 -6 -9 -16 -19 -22 -18 -11 -30 -3 -110 77 -50 49 -91 94 -91 100 0 15 57
-20 147 -89z m-5577 38 c-14 -11 -43 -37 -65 -58 -22 -21 -49 -41 -59 -44 -10
-4 -16 -10 -12 -14 8 -8 -34 -53 -50 -53 -6 0 -17 6 -23 14 -9 11 1 23 46 60
32 26 67 55 78 64 28 25 78 51 95 51 10 0 7 -6 -10 -20z m564 -26 c12 -36 13
-49 4 -54 -18 -11 -25 -3 -32 35 -6 29 0 66 9 66 2 0 10 -21 19 -47z m4830 33
c18 -7 44 -24 58 -37 15 -13 51 -44 82 -68 31 -24 56 -47 56 -51 0 -5 -9 -12
-21 -15 -22 -7 -59 18 -59 41 0 7 -8 15 -17 19 -21 6 -152 124 -140 125 4 0
23 -6 41 -14z m-4880 -23 c3 -16 8 -38 12 -50 5 -18 3 -21 -14 -16 -23 6 -32
30 -25 67 7 34 19 33 27 -1z m4321 -42 c-5 -32 -11 -41 -27 -41 -21 0 -21 15
2 76 16 41 34 16 25 -35z m50 -18 c-3 -15 -13 -23 -25 -23 -17 0 -19 4 -14 28
4 15 11 38 17 52 l10 25 8 -30 c5 -16 7 -40 4 -52z m50 20 l7 -38 12 30 13 30
8 -25 c4 -14 9 -50 10 -80 2 -46 7 -58 31 -78 130 -109 226 -196 240 -218 14
-20 17 -53 18 -177 1 -141 3 -156 27 -207 14 -31 34 -63 43 -73 17 -16 16 -17
-7 -17 -30 0 -111 62 -223 169 -54 53 -112 123 -173 214 -51 75 -106 146 -123
158 -39 28 -136 68 -164 69 -20 0 -33 23 -34 58 0 24 21 12 35 -20 l14 -33 1
35 1 35 19 -23 19 -22 4 22 c3 21 5 20 20 -12 l16 -35 1 35 c1 33 1 34 15 16
8 -11 16 -31 16 -45 2 -24 2 -24 6 -3 2 12 6 22 8 22 12 0 140 -93 184 -134
l55 -51 -39 50 c-21 28 -71 80 -109 117 l-71 66 49 50 c34 36 47 55 42 68 -8
20 3 84 14 84 4 0 11 -17 15 -37z m-4320 7 c16 -18 16 -20 1 -26 -20 -8 -21
-6 -30 24 -9 27 5 29 29 2z m4171 -16 c-3 -9 -6 -18 -6 -20 0 -2 -7 -4 -15 -4
-18 0 -19 12 -3 28 17 17 31 15 24 -4z m-5391 -12 c-3 -3 -11 0 -18 7 -9 10
-8 11 6 5 10 -3 15 -9 12 -12z m6570 -2 c-3 -5 -12 -10 -18 -10 -7 0 -6 4 3
10 19 12 23 12 15 0z m-6434 -51 c52 -22 111 -49 133 -60 30 -15 41 -17 52 -8
12 9 13 9 9 -3 -7 -18 40 -53 50 -38 3 6 12 10 18 10 8 0 7 -4 -2 -9 -13 -8
-13 -12 -1 -26 11 -13 -342 155 -359 171 -10 9 11 2 100 -37z m6379 27 c0 -2
-71 -40 -159 -84 -144 -74 -159 -80 -164 -62 -4 16 -2 18 12 11 21 -11 66 22
55 41 -5 10 -4 10 5 2 10 -9 40 1 124 42 107 51 127 59 127 50z m-5998 -47
c20 -11 20 -11 -3 -35 -26 -28 -51 -31 -69 -9 -7 9 -11 17 -9 19 13 10 54 36
57 36 2 0 12 -5 24 -11z m5628 -30 c0 -3 -9 -14 -20 -24 -20 -18 -21 -18 -50
10 l-30 29 22 12 c19 10 28 9 50 -4 16 -9 28 -19 28 -23z m-5547 -8 c4 -4 -8
-22 -27 -40 -35 -34 -35 -34 -62 -16 l-28 18 33 29 c31 28 60 31 84 9z m5474
-14 c22 -19 22 -22 6 -39 -9 -10 -21 -18 -28 -18 -12 0 -71 58 -64 63 16 14
45 24 54 20 5 -3 20 -15 32 -26z m-5390 -12 c6 -4 -84 -95 -93 -95 -6 0 -19 9
-29 20 -18 20 -18 21 1 34 10 8 30 23 44 34 21 18 60 21 77 7z m773 7 c0 -15
-59 -72 -74 -72 -19 0 -20 10 -4 45 15 33 28 32 29 -2 l1 -28 14 33 c13 29 34
44 34 24z m4541 -29 c44 -32 47 -43 19 -68 -20 -18 -21 -17 -69 33 -38 40 -45
52 -32 55 33 9 44 6 82 -20z m-5247 8 c17 -6 12 -15 -41 -72 l-61 -64 -22 20
-22 19 59 53 c32 29 60 52 63 52 3 0 14 -4 24 -8z m4415 -21 c12 -36 24 -40
15 -5 -9 36 12 32 31 -6 19 -37 14 -46 -19 -31 -31 14 -74 72 -53 72 8 0 20
-13 26 -30z m760 -30 l55 -48 -30 -35 c-16 -20 -32 -36 -35 -36 -5 -1 -29 44
-29 55 0 2 12 -3 28 -13 17 -11 5 6 -31 46 -44 48 -55 66 -45 72 22 14 31 10
87 -41z m226 0 c3 -6 -1 -7 -9 -4 -18 7 -21 14 -7 14 6 0 13 -4 16 -10z
m-5749 -69 c8 -15 13 -18 16 -10 4 11 10 10 31 -4 25 -16 27 -23 27 -82 0 -96
-25 -83 -48 25 l-10 45 -1 -52 c-2 -93 -34 -61 -46 46 -6 51 -5 63 6 59 8 -3
19 -15 25 -27z m5818 -23 c-10 -74 -18 -101 -32 -106 -9 -3 -12 17 -12 67 0
56 3 72 18 80 30 18 33 13 26 -41z m-5529 1 c-13 -24 -19 -29 -26 -18 -5 9 -1
21 13 36 28 30 33 23 13 -18z m5463 -84 c-13 -52 -42 -73 -51 -38 -4 16 -5 15
-6 -2 -1 -25 -19 -45 -39 -45 -22 0 -8 120 15 138 26 19 31 15 36 -25 3 -36 4
-36 5 8 2 37 6 48 25 56 19 9 22 7 25 -16 1 -14 -3 -48 -10 -76z m-5618 16 c0
-14 3 -43 6 -63 5 -30 3 -38 -8 -38 -27 0 -40 28 -46 96 l-5 66 27 -17 c17
-11 26 -26 26 -44z m990 40 c0 -5 -13 -12 -30 -16 -33 -7 -37 -20 -15 -52 13
-19 13 -22 -1 -27 -30 -11 -42 -7 -37 14 7 26 -11 26 -80 0 -114 -43 -162
-113 -151 -225 7 -70 -11 -38 -37 65 l-21 81 27 36 c39 50 105 88 183 107 112
26 162 31 162 17z m3637 -21 c113 -14 193 -52 247 -117 l26 -31 -15 -70 c-8
-39 -21 -86 -30 -104 l-15 -33 6 51 c7 66 -10 130 -44 161 -33 31 -139 83
-169 83 -17 0 -23 -6 -23 -21 0 -15 -4 -19 -16 -15 -9 3 -20 6 -25 6 -6 0 -3
10 5 22 24 34 19 46 -19 54 -19 3 -32 10 -29 15 6 11 2 11 101 -1z m-4570 -32
c14 -17 21 -118 8 -118 -22 0 -33 17 -44 68 -16 75 -15 85 7 73 10 -5 23 -16
29 -23z m5442 -42 c-8 -47 -17 -69 -30 -77 -22 -11 -21 -12 -19 56 1 41 6 54
28 72 14 12 28 21 30 19 1 -2 -2 -34 -9 -70z m-5388 -56 c-9 -50 -16 -40 -25
35 -6 49 -6 49 13 30 15 -16 18 -28 12 -65z m5321 23 c-5 -72 -14 -84 -23 -28
-5 32 -4 54 3 62 18 23 23 14 20 -34z m-4900 -40 c-27 -41 -67 -110 -56 -98 6
6 23 27 38 48 32 43 49 43 19 0 -35 -51 -37 -58 -5 -29 38 35 43 17 9 -28 -40
-53 -41 -62 -4 -27 43 41 48 31 11 -23 l-27 -39 39 29 39 29 -40 -55 -40 -55
39 32 c22 18 42 30 45 28 2 -3 -11 -24 -29 -48 -55 -70 -56 -74 -7 -28 47 46
72 51 43 9 -20 -28 -21 -49 -2 -22 8 10 17 16 20 13 18 -18 109 -221 130 -291
22 -74 66 -256 66 -275 0 -4 -29 21 -64 56 l-64 64 -8 86 c-10 127 -17 138
-39 57 -10 -37 -22 -69 -26 -72 -12 -7 -73 80 -123 176 -72 139 -96 273 -60
343 18 35 102 147 110 147 3 0 -3 -12 -14 -27z m646 11 c2 -1 -13 -11 -34 -22
-37 -19 -37 -20 -15 -31 12 -7 45 -14 74 -16 29 -2 51 -6 50 -9 -2 -3 -3 -15
-3 -26 0 -25 -34 -27 -108 -5 -90 27 -158 107 -99 117 22 4 129 -2 135 -8z
m3310 -14 c21 0 13 -35 -15 -63 -39 -37 -111 -67 -160 -67 -36 0 -43 3 -43 20
0 11 -1 23 -2 27 -2 3 17 7 42 8 50 1 100 13 100 24 0 4 -19 16 -42 27 l-43
19 55 6 c30 3 64 5 75 3 11 -2 26 -4 33 -4z m544 -50 c73 -92 80 -112 68 -201
-5 -44 -21 -110 -36 -147 -26 -65 -96 -191 -133 -241 l-19 -24 -23 71 c-12 39
-26 69 -29 67 -4 -3 -11 -49 -14 -103 l-7 -99 -65 -64 c-35 -35 -64 -61 -64
-57 0 3 14 69 31 145 32 143 50 197 115 345 34 77 40 85 57 76 17 -8 17 -7 7
12 -22 42 -4 41 40 -2 48 -47 45 -36 -8 30 -19 23 -33 45 -30 47 2 2 22 -10
44 -28 l39 -32 -32 44 c-35 47 -36 66 -3 36 11 -10 20 -13 20 -7 0 6 -4 14
-10 17 -11 7 -33 45 -26 45 3 0 22 -15 43 -32 l38 -33 -39 53 c-42 58 -42 80
1 41 27 -25 24 -15 -10 35 l-20 28 24 -12 23 -13 -17 26 c-17 27 -24 48 -9 32
5 -6 25 -30 44 -55z m2008 -15 c-12 -36 -36 -85 -54 -108 -26 -35 -42 -45
-101 -64 -39 -12 -82 -24 -97 -27 -38 -9 -35 -23 10 -42 l37 -15 -27 -15 c-40
-21 -323 -128 -389 -147 -38 -12 -134 -20 -315 -27 -142 -6 -290 -15 -328 -21
-79 -11 -93 -4 -128 65 -22 42 -15 54 30 57 26 2 31 3 56 14 15 7 26 1 49 -26
l29 -34 -17 33 c-9 19 -15 36 -12 38 2 2 42 15 88 29 75 22 103 25 260 25 123
0 179 -4 187 -12 9 -9 12 -8 12 5 0 29 17 19 51 -28 18 -25 34 -45 36 -45 2 0
-6 18 -17 41 -12 23 -20 43 -17 45 2 2 28 8 57 14 29 6 56 13 59 16 3 4 -5 4
-19 1 -40 -10 -240 -21 -240 -13 0 4 11 29 25 56 14 28 24 50 22 50 -2 0 -20
-24 -39 -52 l-35 -53 -81 3 c-80 3 -82 4 -72 25 10 21 10 21 -6 0 -21 -29 -87
-34 -77 -5 4 11 0 10 -11 -5 -10 -13 -28 -23 -42 -23 -27 0 -28 3 -13 33 9 19
7 18 -10 -3 -11 -14 -21 -28 -21 -31 0 -4 -17 -10 -37 -14 -21 -4 -92 -23
-158 -42 -159 -46 -185 -52 -185 -43 0 5 17 28 38 52 20 24 46 56 57 70 15 20
59 42 165 84 80 31 172 63 205 70 80 18 251 17 350 -2 118 -21 269 -28 352
-15 70 11 264 86 348 134 22 13 42 22 44 21 1 -2 -7 -32 -19 -69z m186 20 c-7
-63 -59 -232 -87 -285 -36 -67 -48 -75 -141 -90 -49 -7 -88 -17 -88 -21 0 -12
36 -29 62 -29 13 0 29 -4 37 -9 10 -6 -27 -29 -125 -78 -127 -63 -304 -137
-311 -130 -1 2 10 21 26 43 26 35 46 46 176 99 132 53 145 60 129 72 -11 8
-29 16 -41 20 -35 8 -27 21 20 33 130 35 146 42 180 80 44 48 52 64 77 142 24
78 25 85 3 66 -18 -15 -77 -48 -87 -48 -3 0 -2 10 3 22 8 23 150 168 165 168
5 0 6 -25 2 -55z m-8768 -122 c20 -36 9 -38 -44 -9 -26 14 -49 25 -51 22 -7
-7 45 -137 71 -176 35 -53 60 -68 161 -95 47 -12 88 -25 91 -28 3 -3 -11 -13
-30 -22 -20 -10 -38 -21 -41 -25 -3 -4 58 -31 134 -60 77 -29 143 -55 148 -59
17 -12 65 -81 56 -81 -44 0 -454 183 -440 196 2 3 26 10 53 17 74 19 65 32
-33 47 -50 7 -96 19 -107 29 -40 34 -121 249 -133 353 l-6 52 79 -68 c43 -38
85 -80 92 -93z m227 51 c116 -47 124 -48 240 -52 93 -3 148 1 245 18 140 25
326 30 400 11 94 -25 345 -125 358 -143 8 -10 31 -39 53 -64 21 -25 39 -50 39
-56 0 -12 -3 -11 -185 36 -71 19 -142 37 -157 40 -15 4 -39 23 -57 48 -17 23
-31 38 -31 32 0 -5 9 -20 20 -34 11 -14 20 -28 20 -31 0 -14 -56 5 -73 25
l-18 21 6 -22 c7 -26 3 -27 -43 -14 -20 6 -32 6 -32 0 0 -5 -36 -9 -80 -9
l-80 0 -26 40 c-32 48 -45 46 -15 -3 11 -19 21 -38 21 -42 0 -4 -55 -5 -122
-2 -82 4 -107 3 -75 -3 27 -5 51 -10 53 -12 2 -2 -8 -26 -21 -54 -14 -27 -17
-38 -8 -24 55 76 91 103 80 59 -5 -19 -4 -20 12 -5 14 13 49 16 191 18 156 2
184 -1 262 -21 l87 -24 -30 -61 c-31 -63 -23 -57 21 14 18 30 30 40 45 38 11
-2 19 -10 17 -18 -3 -12 -1 -12 9 -3 6 6 17 10 23 8 6 -2 23 -6 38 -9 26 -6
27 -8 16 -34 -7 -15 -23 -42 -36 -60 -20 -28 -29 -33 -51 -28 -14 4 -162 11
-328 16 -333 10 -346 12 -546 86 -178 65 -227 85 -227 93 0 4 17 15 37 25 45
21 39 26 -67 51 -66 15 -81 24 -120 64 -31 32 -52 66 -68 111 -12 36 -22 68
-22 72 0 3 24 -7 53 -22 28 -15 106 -50 172 -76z m1373 47 c11 -6 8 -16 -12
-46 -14 -21 -26 -43 -26 -49 0 -11 59 54 60 67 0 16 19 6 25 -14 5 -14 0 -32
-16 -53 -22 -30 -22 -30 -1 -12 22 19 22 19 22 0 -1 -45 -15 -47 -76 -8 -32
20 -61 38 -63 40 -5 4 59 84 67 84 4 0 13 -4 20 -9z m-38 -165 c0 -3 -4 -8
-10 -11 -5 -3 -10 -1 -10 4 0 6 5 11 10 11 6 0 10 -2 10 -4z m340 -16 c0 -11
-4 -20 -10 -20 -5 0 -10 9 -10 20 0 11 5 20 10 20 6 0 10 -9 10 -20z m1050 8
c0 -7 -12 -25 -27 -40 l-27 -28 32 0 c19 0 32 5 32 13 0 9 2 9 8 0 4 -6 24
-11 45 -11 30 0 40 5 47 22 7 17 9 18 9 3 1 -15 8 -17 41 -14 32 3 43 0 50
-14 14 -25 13 -27 -22 -46 -52 -27 -190 -25 -245 5 -61 32 -78 72 -31 72 10 0
24 11 30 25 12 26 58 36 58 13z m4110 2 c0 -5 -2 -10 -4 -10 -3 0 -8 5 -11 10
-3 6 -1 10 4 10 6 0 11 -4 11 -10z m-330 -32 c0 -5 -4 -8 -10 -8 -5 0 -10 10
-10 23 0 18 2 19 10 7 5 -8 10 -18 10 -22z m-1020 -7 c5 -11 20 -21 32 -23 37
-5 33 -34 -9 -62 -72 -47 -185 -56 -271 -20 -29 12 -31 15 -21 38 10 22 59 43
59 25 0 -12 84 -8 92 5 5 7 8 4 8 -8 0 -14 5 -17 23 -12 12 3 35 6 51 6 l29 0
-20 23 c-35 38 -36 47 -9 47 15 0 30 -8 36 -19z m-4182 -12 c38 -13 48 -36 21
-44 -11 -4 -21 -5 -22 -3 -1 1 -13 15 -26 31 -27 29 -21 33 27 16z m5572 -24
c-26 -26 -37 -32 -47 -24 -21 18 -16 29 20 44 54 24 63 17 27 -20z m-5166 -11
c11 -30 6 -37 -14 -19 -11 10 -20 22 -20 27 0 15 28 9 34 -8z m-46 -34 c28
-50 11 -53 -34 -5 -40 40 -41 45 -11 45 15 0 29 -12 45 -40z m4822 32 c0 -5
-9 -17 -20 -27 -20 -18 -20 -17 -20 8 0 20 5 27 20 27 11 0 20 -4 20 -8z
m-4902 -37 c31 -49 27 -54 -13 -15 -19 18 -32 37 -29 42 9 14 19 8 42 -27z
m4944 -7 c-48 -48 -64 -45 -32 6 16 26 29 36 47 36 26 0 25 -1 -15 -42z m88
18 c0 -7 -13 -25 -30 -41 -35 -34 -39 -21 -9 29 20 34 39 40 39 12z m-5230
-26 c11 -11 20 -24 20 -30 0 -19 -27 -10 -55 20 -28 29 -28 30 -7 30 12 0 31
-9 42 -20z m138 -1 c7 -12 11 -24 8 -27 -6 -6 -35 27 -36 41 0 14 15 7 28 -14z
m5287 -9 c-40 -41 -75 -40 -42 2 13 16 32 26 56 27 9 1 4 -10 -14 -29z m-158
-5 c-7 -14 -18 -25 -24 -25 -10 0 -10 6 -1 25 6 14 17 25 24 25 9 0 10 -6 1
-25z m-5189 3 c16 -16 15 -28 -3 -28 -8 0 -19 9 -25 20 -8 15 -8 20 3 20 7 0
18 -5 25 -12z m5260 -5 c-2 -10 -14 -20 -28 -22 -25 -3 -25 -3 -6 18 23 26 39
27 34 4z m-5492 -98 c-34 -51 -53 -65 -70 -48 -3 4 17 31 46 60 28 29 54 50
56 48 3 -3 -11 -30 -32 -60z m5719 14 c52 -49 61 -69 30 -69 -13 0 -95 100
-95 115 0 12 14 2 65 -46z m-5658 -18 c-23 -33 -50 -60 -59 -60 -27 -1 -22 9
31 67 66 70 81 66 28 -7z m61 2 c-14 -21 -28 -44 -33 -52 -5 -8 10 0 33 19 23
18 42 36 42 39 0 4 9 12 21 19 18 12 18 8 -7 -35 -41 -73 -57 -87 -82 -74 -11
6 -30 11 -41 11 -12 0 -21 3 -21 7 0 9 104 112 108 108 2 -2 -7 -20 -20 -42z
m5462 17 c0 -6 18 -27 41 -47 33 -30 38 -38 25 -45 -22 -12 -28 -7 -69 62 -29
48 -32 58 -17 50 11 -6 20 -15 20 -20z m82 -17 c26 -26 48 -51 48 -55 0 -19
-39 -5 -55 20 -10 15 -29 39 -43 55 -45 48 -1 31 50 -20z m-5415 -5 c-22 -39
-71 -77 -83 -65 -6 6 88 107 99 107 5 0 -2 -19 -16 -42z m5281 -73 c-13 -13
-64 25 -86 63 -34 62 -27 62 35 0 31 -32 54 -60 51 -63z m25 57 c55 -55 62
-72 29 -72 -14 0 -51 38 -52 54 0 5 -11 24 -26 43 -39 52 -14 39 49 -25z
m-5238 24 c-9 -13 -24 -27 -33 -31 -10 -4 -5 6 12 24 36 37 42 39 21 7z m5101
-33 c-7 -8 -32 10 -50 34 l-20 27 37 -29 c20 -16 35 -31 33 -32z m-4911 27
c10 -11 13 -20 7 -20 -18 0 -62 22 -62 32 0 16 37 8 55 -12z m4716 -10 c-13
-11 -30 -20 -39 -20 -13 0 -12 3 3 20 10 11 28 20 39 20 20 -1 20 -1 -3 -20z
m-4754 -15 c32 -28 19 -32 -33 -10 -20 8 -33 19 -29 25 10 17 32 11 62 -15z
m4821 6 c53 -29 304 -130 344 -140 72 -17 372 -61 417 -61 23 0 41 -3 41 -6 0
-4 -25 -35 -56 -70 -31 -35 -51 -64 -46 -64 5 0 81 34 169 75 133 63 175 78
253 90 51 9 114 25 141 37 28 11 52 19 54 16 9 -9 -162 -168 -240 -223 -139
-99 -229 -138 -363 -156 -91 -12 -218 -2 -327 26 -79 21 -200 81 -239 119 -66
65 -203 226 -192 226 3 0 40 -24 83 -53 79 -54 188 -104 347 -159 88 -31 89
-32 112 -82 14 -28 22 -42 20 -31 -3 11 -8 33 -12 49 -10 40 9 27 42 -30 14
-24 27 -44 29 -44 2 0 -5 22 -16 50 l-19 49 48 -5 c26 -3 67 -1 92 4 40 9 33
10 -56 10 -75 0 -116 6 -165 22 -92 31 -348 159 -362 181 -7 11 -20 19 -29 19
-23 0 -23 16 0 30 13 8 9 9 -20 4 -49 -8 -50 10 -3 27 47 17 37 23 -15 9 -54
-14 -61 -7 -19 19 41 25 36 26 -21 6 -54 -19 -60 -14 -20 15 38 27 34 36 -6
15 -54 -28 -76 -13 -26 17 32 20 37 21 60 9z m-4866 -27 c43 -31 48 -38 16
-29 -66 19 -65 19 -38 -4 l25 -21 -45 5 c-34 4 -40 3 -24 -4 55 -24 31 -40
-34 -22 -41 12 -42 4 -2 -11 36 -12 34 -34 -1 -30 -17 1 -20 -1 -11 -7 18 -11
-65 -62 -233 -142 -143 -69 -220 -88 -326 -83 -60 4 -69 2 -49 -7 14 -6 56 -9
93 -7 74 4 72 7 51 -59 -3 -10 5 -1 17 20 28 46 43 48 36 5 -5 -32 -5 -32 13
8 18 38 25 42 122 78 133 50 290 127 355 177 29 21 55 39 59 39 10 0 -62 -87
-185 -226 -38 -42 -201 -121 -291 -141 -108 -23 -307 -23 -385 1 -146 44 -393
212 -488 333 l-18 22 58 -20 c32 -11 99 -26 149 -34 89 -15 191 -54 358 -136
32 -16 61 -27 64 -25 2 3 -21 34 -51 68 l-56 64 117 17 c294 44 371 64 518
132 76 35 141 64 143 64 3 1 22 -11 43 -25z m534 -132 c40 -137 81 -492 57
-492 -5 0 -18 18 -31 40 -25 44 -42 45 -42 2 0 -15 -6 -47 -14 -72 -10 -35
-19 -46 -41 -52 -16 -4 -30 -6 -32 -4 -2 1 6 29 17 62 30 85 37 166 16 183
-16 13 -23 61 -9 61 4 0 27 -19 51 -42 l45 -43 -7 40 c-3 22 -13 105 -22 185
-8 80 -22 173 -29 208 -8 35 -15 66 -14 70 2 14 30 -61 55 -146z m3823 87 c-6
-24 -20 -125 -30 -224 -10 -99 -21 -193 -25 -210 -6 -30 -6 -29 43 18 l49 48
12 -38 c6 -20 9 -39 7 -42 -3 -2 -5 1 -5 7 0 18 -18 14 -29 -6 -6 -12 -5 -39
4 -82 8 -36 14 -68 15 -72 0 -13 -50 -9 -54 5 -2 6 -8 28 -13 47 l-10 35 -22
-37 c-13 -21 -27 -38 -32 -38 -14 0 -11 131 5 260 17 137 28 189 63 297 28 86
43 107 22 32z m-4205 -10 c-3 -5 -13 -9 -22 -10 -10 -1 -7 -4 7 -8 41 -11 34
-28 -15 -40 -25 -7 -48 -10 -51 -7 -2 2 11 24 29 49 24 32 36 41 45 34 7 -5
10 -13 7 -18z m4623 -75 c-3 -3 -26 0 -51 7 -49 12 -56 29 -15 39 l24 6 -24 7
c-20 5 -22 8 -12 21 11 13 18 9 48 -30 19 -25 32 -48 30 -50z m-4452 37 c3 -5
1 -12 -5 -16 -5 -3 -10 1 -10 9 0 18 6 21 15 7z m4215 -21 c0 -5 -4 -10 -10
-10 -5 0 -10 5 -10 10 0 6 5 10 10 10 6 0 10 -4 10 -10z m-4390 -20 c19 -12
16 -13 -55 -38 l-60 -21 59 6 c58 6 58 6 51 -18 -13 -43 -78 -171 -89 -174 -6
-2 -31 -7 -56 -13 l-45 -9 35 -9 c34 -7 34 -8 10 -15 -14 -4 -40 -7 -59 -8
-46 -1 -34 -11 23 -19 l46 -7 -51 -65 -50 -65 66 70 c37 38 81 89 97 113 l30
43 34 -53 c29 -44 33 -48 28 -23 -4 17 -13 48 -21 69 -7 22 -11 41 -9 43 6 6
55 -101 77 -167 10 -30 18 -45 18 -34 1 12 -12 64 -29 115 -16 52 -30 110 -29
129 0 33 1 32 19 -20 38 -113 70 -195 70 -180 0 22 -28 147 -47 205 -27 83
-26 83 16 -2 22 -46 42 -83 45 -83 9 0 -7 74 -31 144 -30 90 -28 94 9 21 89
-171 89 -172 82 -136 -3 19 -17 64 -30 100 -14 38 -20 69 -15 74 8 8 36 -34
99 -148 14 -26 15 -14 1 22 -10 27 -9 27 7 11 16 -16 17 -25 6 -88 -21 -121
-97 -241 -197 -310 -24 -17 -45 -30 -47 -30 -3 0 -4 43 -4 97 1 59 -3 97 -10
100 -5 2 -36 -37 -68 -87 -32 -49 -78 -108 -102 -130 l-44 -40 -102 0 c-130 0
-215 18 -320 68 l-83 39 77 1 c157 3 247 65 348 242 79 136 192 273 233 281
48 9 51 9 67 -1z m4714 -92 c39 -46 93 -119 120 -163 134 -217 200 -264 371
-267 l80 -1 -91 -44 c-102 -48 -153 -60 -294 -69 -135 -9 -156 4 -267 166 -32
46 -62 82 -68 79 -6 -2 -10 -44 -9 -96 0 -51 -2 -93 -5 -93 -3 0 -30 16 -59
36 -57 40 -134 135 -163 201 -21 50 -43 159 -35 179 8 21 29 17 22 -3 -4 -11
2 -8 14 7 11 14 20 28 20 31 0 4 12 28 26 53 43 77 50 42 15 -68 -34 -106 -42
-166 -10 -71 11 33 27 67 34 75 7 8 25 40 39 70 15 30 24 46 21 36 -14 -47
-44 -174 -50 -206 -4 -23 7 -6 32 50 24 54 39 78 41 66 2 -10 -1 -28 -6 -40
-13 -26 -46 -175 -40 -181 3 -3 21 44 41 103 31 92 37 101 37 67 0 -22 -9 -66
-20 -98 -39 -115 -32 -133 11 -28 43 105 65 125 34 30 -20 -59 -14 -75 11 -27
31 62 32 62 94 -15 31 -40 77 -90 101 -112 l43 -40 -52 63 c-29 35 -52 67 -52
72 0 4 23 8 51 8 61 1 80 11 23 13 -21 1 -52 4 -69 8 l-30 7 40 8 c33 7 37 10
20 16 -11 5 -37 9 -57 9 -37 1 -38 2 -82 93 -25 50 -42 96 -39 101 3 5 29 7
57 4 l51 -6 -62 22 c-84 28 -81 46 6 41 29 -1 43 -13 105 -86z m-5751 48 c24
-24 24 -26 6 -26 -21 0 -119 46 -119 56 0 4 19 4 43 2 29 -4 52 -14 70 -32z
m6680 4 c-56 -32 -108 -43 -65 -13 12 8 22 22 22 29 0 10 14 14 48 14 l47 0
-52 -30z m577 -13 c0 -44 -217 -296 -320 -372 -67 -49 -189 -108 -295 -143
-91 -30 -251 -62 -312 -62 l-34 0 35 35 c31 31 42 35 85 35 61 0 169 22 243
50 115 43 305 179 433 309 63 65 59 75 -17 41 -24 -10 -64 -22 -88 -26 -42 -6
-44 -5 -29 10 8 9 56 32 105 50 49 18 107 45 128 60 42 28 66 33 66 13z
m-7769 -54 c37 -18 87 -37 112 -44 25 -6 55 -21 67 -34 l21 -23 -44 9 c-24 4
-68 17 -97 28 -30 11 -56 18 -59 15 -10 -10 157 -160 250 -226 172 -122 280
-165 436 -175 94 -6 98 -7 132 -41 l35 -35 -80 7 c-238 21 -466 107 -616 231
-106 87 -278 293 -278 332 0 14 -6 16 121 -44z m1169 -197 c-15 -14 -101 -53
-87 -40 13 13 82 53 92 54 5 0 3 -6 -5 -14z m5354 -12 c25 -14 46 -28 46 -30
0 -8 -75 27 -90 41 -21 22 -9 18 44 -11z m-5837 -100 c-3 -3 -12 -4 -19 -1 -8
3 -5 6 6 6 11 1 17 -2 13 -5z m223 -1 c-1 -13 -29 -59 -30 -48 0 21 13 55 21
55 5 0 9 -3 9 -7z m5861 -19 c14 -38 4 -41 -14 -5 -9 17 -11 31 -6 31 5 0 14
-12 20 -26z m228 22 c-2 -2 -31 -6 -64 -9 -39 -4 -51 -3 -35 2 25 9 107 15 99
7z m-6226 -13 c-13 -2 -35 -2 -50 0 -16 2 -5 4 22 4 28 0 40 -2 28 -4z m79
-22 c-20 -35 -26 -34 -16 3 3 14 12 26 20 26 10 0 9 -6 -4 -29z m5968 15 c0
-8 3 -23 6 -33 5 -15 3 -15 -6 2 -7 11 -20 26 -28 33 -14 10 -13 12 6 12 12 0
22 -6 22 -14z m-22 -261 c67 0 122 -1 122 -3 0 -9 -45 -90 -58 -104 -18 -21
-36 -22 -77 -4 l-30 13 43 22 c51 26 55 42 7 31 -49 -11 -167 5 -215 30 -22
11 -40 23 -40 27 0 3 28 2 63 -3 34 -5 117 -9 185 -9z m-698 -952 c-1 -33 -27
-153 -35 -161 -4 -4 -5 7 -1 23 4 17 10 58 13 93 3 34 9 62 14 62 5 0 9 -8 9
-17z m40 -73 c0 -5 -5 -10 -11 -10 -5 0 -7 5 -4 10 3 6 8 10 11 10 2 0 4 -4 4
-10z m-501 -20 c71 -33 118 -76 150 -142 27 -52 31 -72 31 -137 0 -97 -27
-159 -97 -222 -97 -87 65 -80 -1923 -77 l-1755 3 -57 28 c-109 54 -163 144
-162 272 0 66 5 89 26 131 32 61 83 108 152 140 l51 24 1770 0 c1741 0 1771
-1 1814 -20z m858 -42 c-3 -8 -6 -5 -6 6 -1 11 2 17 5 13 3 -3 4 -12 1 -19z
m-5060 -20 c-3 -8 -6 -5 -6 6 -1 11 2 17 5 13 3 -3 4 -12 1 -19z m-808 -161
c-2 -1 -12 -9 -22 -16 -15 -12 -17 -12 -11 3 3 9 13 16 22 16 8 0 13 -1 11 -3z
m678 -163 c-27 -14 -51 -23 -54 -20 -6 6 75 46 92 45 6 0 -12 -11 -38 -25z
m5270 -256 c-3 -7 -5 -2 -5 12 0 14 2 19 5 13 2 -7 2 -19 0 -25z m60 -75 c-3
-10 -5 -4 -5 12 0 17 2 24 5 18 2 -7 2 -21 0 -30z m-5674 -24 c13 -1 -81 -28
-98 -29 -5 0 6 8 25 19 19 10 41 17 48 15 8 -2 19 -4 25 -5z m-175 -89 c-7
-11 -19 -20 -27 -20 -11 0 -10 5 4 20 10 11 22 20 27 20 4 0 3 -9 -4 -20z
m-68 -76 c-56 -17 -75 -17 -35 1 17 8 41 14 55 14 18 0 12 -5 -20 -15z m143
-11 c-7 -2 -19 -2 -25 0 -7 3 -2 5 12 5 14 0 19 -2 13 -5z"/>
<path d="M4015 8497 c-40 -14 -137 -63 -101 -52 76 23 117 27 215 22 58 -4
117 -9 131 -12 14 -3 1 7 -29 21 -64 31 -157 40 -216 21z"/>
<path d="M3685 8311 c-27 -16 -70 -51 -95 -77 -25 -26 -34 -40 -20 -31 36 25
103 56 120 57 19 1 77 80 58 80 -7 0 -35 -13 -63 -29z"/>
<path d="M3031 8043 c-63 -31 -107 -125 -92 -195 5 -21 60 -129 123 -238 104
-184 115 -200 141 -200 15 0 27 4 27 9 0 5 9 64 21 132 26 154 78 336 123 434
l35 75 -172 0 c-139 0 -178 -4 -206 -17z"/>
<path d="M7705 8497 c-22 -8 -53 -21 -70 -31 -27 -15 -27 -17 -5 -11 60 15
246 16 298 2 28 -8 52 -12 52 -10 0 2 -25 16 -56 30 -67 30 -161 39 -219 20z"/>
<path d="M8136 8328 c23 -39 49 -68 61 -68 18 0 93 -38 116 -58 34 -30 16 5
-20 40 -65 63 -181 125 -157 86z"/>
<path d="M8483 8048 c3 -7 22 -51 42 -98 47 -109 89 -260 110 -391 25 -162 20
-151 62 -147 34 3 38 7 111 133 168 292 181 327 148 406 -15 36 -56 79 -93 98
-32 16 -387 15 -380 -1z"/>
<path d="M8715 7140 l0 -160 70 0 c39 0 76 4 83 8 34 22 38 239 6 290 -13 19
-23 22 -87 22 l-72 0 0 -160z"/>
<path d="M7201 3914 c0 -11 3 -14 6 -6 3 7 2 16 -1 19 -3 4 -6 -2 -5 -13z"/>
<path d="M7291 3874 c0 -11 3 -14 6 -6 3 7 2 16 -1 19 -3 4 -6 -2 -5 -13z"/>
<path d="M3963 8191 c-80 -58 -147 -161 -199 -306 -19 -54 -33 -102 -31 -108
1 -5 19 17 39 49 20 33 49 74 65 92 l28 34 -3 -59 -3 -58 52 97 c29 54 76 128
105 164 37 46 54 77 54 96 0 25 -3 28 -33 28 -22 0 -49 -11 -74 -29z"/>
<path d="M7745 8209 c-11 -17 3 -57 33 -91 43 -50 85 -115 130 -203 l42 -80 0
54 c0 47 2 52 16 41 8 -7 37 -47 65 -89 27 -41 49 -69 49 -62 0 27 -53 169
-88 235 -39 75 -119 169 -163 191 -33 18 -75 19 -84 4z"/>
<path d="M5505 7854 l-30 -14 40 5 c22 3 72 5 110 5 49 0 65 3 55 10 -23 15
-141 11 -175 -6z"/>
<path d="M5550 7823 c-8 -3 -26 -10 -39 -15 -40 -15 -17 -19 45 -7 69 12 95
29 44 28 -19 0 -42 -3 -50 -6z"/>
<path d="M6174 6962 c17 -17 101 -28 109 -15 3 5 -23 13 -58 19 -55 8 -63 7
-51 -4z"/>
<path d="M6130 6925 c0 -10 68 -35 92 -35 13 1 37 7 53 14 29 12 28 13 -30 12
-33 0 -72 3 -87 7 -16 4 -28 5 -28 2z"/>
<path d="M6033 6505 c40 -67 82 -185 96 -267 l9 -53 1 56 c2 94 -56 245 -116
301 -22 20 -20 15 10 -37z"/>
<path d="M6044 6242 c0 -72 3 -107 9 -97 16 29 19 119 5 165 -14 44 -14 43
-14 -68z"/>
<path d="M6362 6081 c-109 -89 -117 -99 -56 -67 48 26 170 137 149 135 -6 0
-47 -31 -93 -68z"/>
<path d="M6159 6049 c-59 -16 -182 -42 -275 -58 l-169 -28 117 -8 c181 -12
253 -5 321 29 55 28 143 96 122 94 -5 0 -58 -13 -116 -29z"/>
<path d="M5969 5428 c-31 -67 -32 -155 -3 -212 l21 -39 6 149 c3 82 4 150 3
151 -2 2 -13 -20 -27 -49z"/>
<path d="M5500 4735 l0 -115 85 0 85 0 0 30 c0 29 -2 30 -45 30 -33 0 -45 4
-45 15 0 10 11 15 35 15 31 0 35 3 35 25 0 22 -4 25 -35 25 -24 0 -35 5 -35
15 0 11 11 15 40 15 38 0 40 2 40 30 l0 30 -80 0 -80 0 0 -115z"/>
<path d="M5730 4822 c-16 -17 -30 -37 -30 -45 0 -30 36 -59 84 -68 56 -10 66
-17 47 -29 -15 -9 -42 -2 -52 13 -8 12 -79 0 -79 -13 0 -17 38 -49 65 -56 78
-20 164 29 150 84 -8 34 -31 49 -82 57 -45 7 -62 19 -38 29 8 3 20 -1 28 -8
16 -16 77 -9 77 9 0 24 -40 48 -89 53 -46 4 -53 2 -81 -26z"/>
<path d="M5950 4815 c0 -32 2 -35 30 -35 l30 0 0 -80 0 -80 40 0 40 0 0 79 c0
79 0 80 28 83 22 2 28 8 30 36 l3 32 -100 0 -101 0 0 -35z"/>
<path d="M6190 4735 l0 -117 81 4 c77 3 82 5 110 36 23 25 29 42 29 77 0 35
-6 52 -29 77 -28 31 -33 33 -110 36 l-81 4 0 -117z m128 43 c7 -7 12 -26 12
-43 0 -35 -15 -55 -42 -55 -15 0 -18 9 -18 55 0 46 3 55 18 55 10 0 23 -5 30
-12z"/>
<path d="M5538 4460 c-14 -11 -28 -29 -31 -39 -4 -17 1 -22 30 -27 28 -5 38
-3 45 10 5 9 13 14 19 11 18 -12 8 -26 -28 -42 -58 -23 -73 -41 -73 -85 l0
-38 90 0 c89 0 90 0 90 25 0 23 -3 25 -50 25 -27 0 -50 3 -50 8 0 4 22 17 49
28 53 24 68 53 51 98 -17 47 -98 61 -142 26z"/>
<path d="M5784 4470 c-57 -23 -75 -134 -31 -185 50 -59 156 -38 179 36 31 104
-53 188 -148 149z m76 -105 c0 -18 -6 -37 -13 -43 -21 -18 -41 3 -41 43 0 40
20 61 41 43 7 -6 13 -25 13 -43z"/>
<path d="M6028 4465 c-32 -18 -46 -54 -27 -66 22 -14 59 -10 65 6 8 20 24 19
24 0 0 -9 -19 -24 -44 -35 -49 -21 -66 -43 -66 -89 l0 -31 90 0 c89 0 90 0 90
24 0 23 -4 25 -52 28 l-53 4 40 18 c57 26 75 45 75 78 0 64 -77 98 -142 63z"/>
<path d="M6247 4404 c-63 -103 -62 -114 8 -114 48 0 55 -2 55 -20 0 -16 7 -20
35 -20 28 0 35 4 35 20 0 11 7 20 15 20 9 0 15 9 15 25 0 16 -6 25 -15 25 -12
0 -15 14 -15 70 l0 70 -43 0 c-44 0 -44 0 -90 -76z m63 -29 c0 -28 -4 -35 -20
-35 -19 0 -19 1 -3 35 9 19 18 35 20 35 2 0 3 -16 3 -35z"/>
<path d="M6505 6886 c-64 -11 -67 -13 -37 -20 39 -9 86 0 103 20 6 8 10 13 8
13 -2 -1 -35 -7 -74 -13z"/>
<path d="M9951 5554 c0 -11 3 -14 6 -6 3 7 2 16 -1 19 -3 4 -6 -2 -5 -13z"/>
<path d="M9030 4616 c0 -2 8 -10 18 -17 15 -13 16 -12 3 4 -13 16 -21 21 -21
13z"/>
<path d="M1971 5504 c0 -11 3 -14 6 -6 3 7 2 16 -1 19 -3 4 -6 -2 -5 -13z"/>
<path d="M5588 2973 c7 -3 16 -2 19 1 4 3 -2 6 -13 5 -11 0 -14 -3 -6 -6z"/>
<path d="M5535 2837 c-139 -46 -214 -147 -223 -299 -10 -172 54 -295 187 -357
49 -23 69 -26 156 -26 73 1 111 6 140 18 106 47 164 114 192 221 10 36 15 67
13 69 -3 3 -56 8 -117 12 l-113 7 0 -27 c0 -17 -12 -39 -34 -61 -27 -27 -42
-34 -73 -34 -21 0 -48 7 -60 15 -34 24 -56 95 -51 161 4 49 10 62 37 86 17 15
40 28 50 28 27 0 78 -45 85 -75 8 -30 7 -30 126 -2 94 23 95 23 92 52 -8 72
-69 152 -147 193 -60 31 -194 40 -260 19z"/>
<path d="M6196 2762 c-17 -246 -18 -382 -5 -429 18 -66 87 -134 160 -159 82
-28 227 -25 297 6 60 26 113 82 130 137 12 36 40 489 31 497 -2 2 -57 7 -121
10 l-118 7 0 -58 c-1 -32 -5 -129 -10 -216 -9 -178 -17 -197 -76 -197 -24 0
-38 7 -49 24 -15 22 -15 47 -5 236 6 117 10 213 8 215 -2 1 -55 5 -119 8
l-117 5 -6 -86z"/>
<path d="M7055 2778 c-9 -31 -86 -631 -80 -636 4 -5 375 -60 411 -62 16 0 39
191 24 200 -7 4 -44 11 -82 15 -39 3 -75 8 -82 11 -9 3 -4 60 18 224 16 121
28 222 25 224 -5 5 -196 36 -219 36 -6 0 -12 -6 -15 -12z"/>
<path d="M4630 2723 c-85 -14 -157 -27 -159 -29 -3 -3 82 -574 94 -630 4 -20
9 -21 52 -13 27 4 80 13 119 19 l71 11 -12 72 c-27 159 -27 149 3 145 23 -2
33 -15 65 -80 33 -66 44 -80 81 -97 23 -12 54 -21 69 -21 35 0 115 28 149 51
l27 19 -21 49 c-17 43 -24 49 -47 48 -22 -2 -30 5 -49 45 -12 26 -31 52 -41
57 -18 10 -17 13 15 46 80 85 48 251 -59 307 -62 32 -168 32 -357 1z m198
-159 c15 -10 22 -25 22 -49 0 -39 -29 -65 -72 -65 -29 0 -30 2 -43 82 -6 39
-10 36 60 47 6 0 21 -6 33 -15z"/>
<path d="M7700 2688 c0 -2 -31 -145 -69 -318 -61 -279 -67 -316 -52 -322 32
-14 402 -90 415 -85 10 4 51 166 43 172 -1 2 -47 12 -102 24 -54 12 -101 24
-103 26 -2 2 -1 18 3 35 5 22 11 30 23 26 47 -13 135 -27 146 -23 18 7 42 137
27 147 -7 4 -44 13 -82 19 -63 12 -69 15 -69 37 0 14 6 27 13 30 8 3 54 -4
103 -15 49 -11 92 -17 96 -13 11 12 39 165 31 172 -14 12 -422 96 -423 88z"/>
<path d="M4012 2591 c-106 -27 -195 -50 -197 -53 -5 -5 145 -620 154 -630 5
-6 419 88 430 98 4 4 -11 80 -29 146 l-10 36 -101 -26 c-58 -14 -104 -21 -109
-16 -4 5 -10 20 -12 33 -3 23 2 26 77 44 44 11 81 21 82 21 1 1 -2 18 -7 37
-5 19 -14 53 -19 75 l-11 42 -80 -20 c-45 -12 -82 -19 -85 -17 -2 2 -6 16 -10
30 -6 25 -4 26 94 49 56 13 101 28 101 34 0 6 -4 27 -9 46 -6 19 -15 54 -21
78 -7 29 -16 42 -28 42 -9 -1 -104 -23 -210 -49z"/>
<path d="M8389 2477 c-58 -31 -101 -99 -107 -171 -8 -95 36 -152 179 -231 40
-22 77 -47 82 -56 31 -49 -53 -70 -98 -24 -15 14 -25 36 -25 53 0 28 0 28 -89
40 -137 18 -131 20 -131 -37 0 -65 13 -98 58 -144 47 -49 113 -83 199 -103
187 -44 325 47 326 213 0 85 -50 141 -189 211 -73 37 -92 57 -77 80 25 40 93
10 93 -42 0 -22 5 -24 73 -30 39 -4 87 -9 105 -13 l32 -5 0 46 c0 65 -20 105
-74 153 -92 81 -263 109 -357 60z"/>
<path d="M3450 2434 c-52 -19 -96 -37 -99 -39 -3 -4 22 -79 66 -201 4 -10
-116 -60 -122 -51 -1 1 -17 45 -35 97 -18 52 -37 99 -41 104 -4 4 -57 -9 -117
-30 l-109 -38 97 -286 c54 -157 103 -297 109 -312 l10 -27 108 38 c59 21 109
43 110 48 2 6 -12 54 -32 108 -19 53 -35 103 -35 109 0 15 109 51 120 39 4 -4
24 -56 45 -115 l37 -106 111 40 c62 21 112 40 113 41 1 1 -46 140 -104 310
-80 232 -109 307 -121 306 -9 0 -59 -16 -111 -35z"/>
<path d="M9152 2348 c3 -7 15 -14 29 -16 23 -2 23 -2 5 13 -24 18 -39 20 -34
3z"/>
<path d="M9149 2310 c26 -22 45 -26 39 -8 -3 7 -18 15 -34 19 l-29 8 24 -19z"/>
<path d="M9224 2315 c3 -9 0 -15 -9 -15 -18 0 -19 -12 -3 -28 15 -15 48 -16
48 -1 0 6 7 9 15 5 20 -7 19 8 -2 26 -28 24 -56 31 -49 13z"/>
<path d="M9110 2286 c0 -7 167 -96 181 -96 8 0 5 8 -7 21 -32 36 -174 97 -174
75z"/>
<path d="M2708 2260 c-37 -11 -86 -42 -92 -57 -3 -7 -3 -13 0 -13 14 0 124 64
124 71 0 5 -1 9 -2 8 -2 0 -15 -4 -30 -9z"/>
<path d="M9260 2250 c0 -13 28 -25 38 -16 3 4 0 11 -8 16 -20 13 -30 12 -30 0z"/>
<path d="M9115 2240 c4 -6 30 -22 58 -36 28 -15 64 -36 79 -47 15 -11 31 -17
35 -13 11 10 -39 49 -103 80 -56 27 -79 33 -69 16z"/>
<path d="M2677 2205 c-48 -28 -76 -55 -59 -55 17 0 59 22 101 54 45 34 13 34
-42 1z"/>
<path d="M9090 2200 c0 -5 3 -10 8 -10 4 0 43 -20 86 -45 44 -25 82 -43 84
-40 11 11 -35 47 -94 75 -66 32 -84 36 -84 20z"/>
<path d="M2660 2153 c-24 -15 -39 -28 -33 -30 15 -5 93 35 93 47 0 15 -11 12
-60 -17z"/>
<path d="M2820 2160 c0 -5 5 -10 10 -10 6 0 10 5 10 10 0 6 -4 10 -10 10 -5 0
-10 -4 -10 -10z"/>
<path d="M9070 2165 c0 -6 77 -45 90 -45 26 0 5 20 -37 34 -52 18 -53 18 -53
11z"/>
<path d="M2735 2141 c-42 -19 -77 -51 -56 -51 11 0 119 55 130 65 11 12 -38 3
-74 -14z"/>
<path d="M2752 2105 c-29 -12 -58 -27 -64 -33 -21 -21 0 -23 39 -4 21 11 55
25 76 31 38 13 51 32 20 30 -10 -1 -42 -11 -71 -24z"/>
<path d="M9060 2110 c0 -5 12 -13 28 -16 15 -4 50 -20 78 -36 51 -28 80 -36
69 -18 -3 5 -34 25 -69 45 -61 34 -106 45 -106 25z"/>
<path d="M9200 2100 c0 -14 49 -44 58 -35 4 3 -4 15 -17 26 -26 21 -41 24 -41
9z"/>
<path d="M2791 2080 c-56 -20 -81 -36 -81 -51 0 -16 30 -10 78 16 26 14 57 25
70 25 15 0 22 5 20 13 -7 18 -28 18 -87 -3z"/>
<path d="M9065 2060 c9 -14 101 -60 120 -60 32 0 13 21 -41 45 -59 26 -89 32
-79 15z"/>
<path d="M2778 2027 c-47 -20 -71 -47 -42 -47 8 0 32 11 52 25 20 14 42 25 49
25 7 0 13 5 13 10 0 14 -18 11 -72 -13z"/>
<path d="M9084 1994 c48 -25 91 -42 95 -39 9 9 -25 33 -88 61 -95 42 -101 25
-7 -22z"/>
<path d="M2805 2000 c-28 -11 -53 -40 -35 -40 20 0 90 33 90 42 0 10 -29 9
-55 -2z"/>
<path d="M8996 1988 c10 -16 134 -70 152 -66 12 2 7 9 -18 25 -42 25 -144 57
-134 41z"/>
<path d="M8974 1951 c7 -10 133 -71 147 -71 27 0 1 25 -53 50 -62 29 -105 39
-94 21z"/>
<path d="M8950 1916 c0 -9 120 -66 138 -66 24 0 7 23 -30 42 -38 20 -108 35
-108 24z"/>
<path d="M8944 1855 c11 -8 27 -15 35 -15 13 1 12 4 -3 15 -11 8 -27 15 -35
15 -13 -1 -12 -4 3 -15z"/>
<path d="M9010 1830 c0 -13 69 -44 78 -35 10 10 -36 45 -59 45 -10 0 -19 -4
-19 -10z"/>
<path d="M8930 1821 c0 -9 50 -41 65 -41 13 0 3 28 -12 33 -10 2 -26 8 -35 12
-11 4 -18 3 -18 -4z"/>
<path d="M8938 1756 c39 -19 72 -37 72 -40 0 -3 -24 6 -52 19 -29 14 -66 25
-83 24 -26 0 -27 -2 -10 -9 11 -4 51 -26 90 -49 81 -48 111 -52 110 -18 0 13
-6 31 -13 39 -17 21 -97 55 -147 62 -36 6 -33 3 33 -28z"/>
<path d="M9015 1781 c-5 -9 24 -31 39 -31 13 0 5 28 -10 34 -20 8 -22 8 -29
-3z"/>
<path d="M8830 1710 c0 -5 7 -10 15 -10 8 0 15 5 15 10 0 6 -7 10 -15 10 -8 0
-15 -4 -15 -10z"/>
<path d="M8870 1702 c0 -5 16 -16 36 -26 45 -21 39 -31 -7 -12 -50 20 -99 29
-99 18 0 -6 12 -15 28 -20 l27 -10 -27 -1 c-42 -1 -34 -19 14 -32 23 -6 73
-26 110 -45 77 -39 99 -43 73 -14 -18 19 -17 20 5 20 19 0 20 2 10 15 -7 8
-18 15 -26 15 -7 0 -16 4 -19 10 -4 6 6 7 25 4 54 -11 33 14 -45 51 -74 35
-105 43 -105 27z"/>
<path d="M2948 1658 c-55 -28 -74 -48 -44 -48 7 0 24 8 37 18 13 10 39 24 57
31 18 8 35 18 38 22 10 18 -32 6 -88 -23z"/>
<path d="M2974 1624 c-18 -14 -18 -15 6 -8 31 8 50 24 29 24 -8 0 -24 -7 -35
-16z"/>
<path d="M2975 1584 c-55 -27 -88 -54 -66 -54 7 0 22 5 34 11 12 6 4 -5 -18
-25 -22 -19 -34 -35 -27 -36 19 0 147 83 134 88 -6 2 -20 -1 -31 -7 -25 -14
-34 -14 -26 -1 3 6 23 19 43 30 54 28 16 23 -43 -6z"/>
<path d="M8800 1601 c0 -10 190 -84 197 -77 3 3 -31 23 -76 45 -77 39 -121 51
-121 32z"/>
<path d="M2880 1564 c0 -14 3 -14 15 -4 8 7 15 14 15 16 0 2 -7 4 -15 4 -8 0
-15 -7 -15 -16z"/>
<path d="M2994 1510 c-57 -34 -85 -60 -64 -60 23 0 141 71 135 81 -9 13 -15
12 -71 -21z"/>
<path d="M9042 1465 c-6 -14 -18 -25 -27 -25 -8 0 -15 -4 -15 -10 0 -20 48
-11 53 10 3 12 14 20 26 20 25 0 28 15 5 24 -25 10 -30 7 -42 -19z"/>
<path d="M2966 1439 c-27 -16 -46 -32 -44 -35 5 -5 138 55 138 62 0 14 -54 -1
-94 -27z"/>
<path d="M9110 1460 c0 -10 33 -30 49 -30 22 0 10 18 -19 29 -17 5 -30 6 -30
1z"/>
<path d="M9070 1415 c7 -8 17 -15 22 -15 6 0 5 7 -2 15 -7 8 -17 15 -22 15 -6
0 -5 -7 2 -15z"/>
<path d="M8236 1400 c-101 -36 -122 -61 -96 -109 13 -25 142 -77 290 -117 89
-24 213 -66 245 -82 17 -8 44 -19 60 -23 17 -4 40 -11 53 -14 12 -4 22 -3 22
2 0 13 -112 64 -210 97 -41 14 -91 32 -110 41 l-35 15 40 -6 c22 -4 55 -13 74
-20 18 -8 43 -14 55 -14 11 0 66 -20 120 -45 55 -25 102 -43 104 -41 10 11
-15 30 -67 53 -31 14 -83 37 -116 52 -33 15 -108 43 -167 61 -59 19 -106 36
-104 38 9 9 286 -81 364 -118 46 -22 91 -40 100 -40 69 0 -205 124 -433 196
-49 16 -83 30 -74 32 25 5 252 -77 444 -158 82 -35 94 -37 70 -10 -9 10 -57
36 -106 56 -49 20 -89 41 -89 45 0 8 48 -8 132 -45 24 -10 39 -12 43 -6 8 13
-111 69 -233 111 -48 16 -70 27 -49 24 43 -7 337 -112 352 -126 5 -5 16 -9 24
-9 29 0 -20 38 -85 66 -35 15 -62 29 -60 32 6 5 89 -24 136 -48 50 -25 80 -33
80 -21 0 11 -78 54 -140 77 l-35 13 31 0 c17 1 59 -10 93 -24 86 -35 101 -25
21 14 -36 17 -55 29 -42 26 13 -4 22 -2 22 5 0 12 24 9 64 -6 25 -10 19 14 -9
32 -23 15 -28 15 -72 0 -52 -18 -168 -21 -278 -6 -38 5 -137 11 -220 15 -136
5 -156 4 -209 -15z m344 -70 c8 -5 11 -10 5 -10 -5 0 -17 5 -25 10 -8 5 -10
10 -5 10 6 0 17 -5 25 -10z m-245 -20 c13 -5 14 -9 5 -9 -8 0 -24 4 -35 9 -13
5 -14 9 -5 9 8 0 24 -4 35 -9z m20 -64 c55 -19 94 -35 86 -35 -22 -1 -180 49
-186 60 -8 12 -14 14 100 -25z"/>
<path d="M8870 1220 c0 -5 7 -10 15 -10 8 0 15 5 15 10 0 6 -7 10 -15 10 -8 0
-15 -4 -15 -10z"/>
<path d="M9552 1218 c3 -7 13 -15 24 -17 16 -3 17 -1 5 13 -16 19 -34 21 -29
4z"/>
<path d="M9620 1212 c0 -5 7 -13 16 -16 10 -4 14 -1 12 6 -5 15 -28 23 -28 10z"/>
<path d="M2400 1200 c0 -5 4 -10 9 -10 6 0 13 5 16 10 3 6 -1 10 -9 10 -9 0
-16 -4 -16 -10z"/>
<path d="M2306 1140 c-39 -35 -51 -69 -17 -50 22 12 66 69 58 76 -3 3 -21 -9
-41 -26z"/>
<path d="M2355 1128 c-18 -21 -23 -34 -15 -36 12 -4 59 44 60 61 0 16 -20 5
-45 -25z"/>
<path d="M2376 1078 c-55 -49 -122 -136 -111 -146 9 -9 165 159 165 178 0 15
-2 13 -54 -32z"/>
<path d="M3213 1077 c-35 -13 -75 -47 -55 -47 18 0 102 43 102 52 0 10 -7 9
-47 -5z"/>
<path d="M2301 1066 c-8 -9 -11 -19 -7 -23 9 -9 29 13 24 27 -2 8 -8 7 -17 -4z"/>
<path d="M2210 1031 c-5 -11 -10 -24 -10 -30 0 -21 20 -10 35 19 14 26 14 30
1 30 -9 0 -20 -9 -26 -19z"/>
<path d="M2473 1036 c-4 -7 -36 -37 -70 -65 -56 -46 -79 -81 -54 -81 16 0 153
139 146 150 -8 13 -12 13 -22 -4z"/>
<path d="M2400 1025 c0 -9 6 -12 15 -9 8 4 15 10 15 15 0 5 -7 9 -15 9 -8 0
-15 -7 -15 -15z"/>
<path d="M2252 1005 c-18 -38 -15 -41 13 -15 28 26 32 40 12 40 -8 0 -19 -11
-25 -25z"/>
<path d="M2336 970 c-36 -40 -45 -60 -27 -60 11 0 81 80 81 92 0 18 -19 6 -54
-32z"/>
<path d="M8604 899 c11 -96 26 -109 23 -20 -1 53 -6 76 -16 79 -11 4 -13 -7
-7 -59z"/>
<path d="M8570 928 c0 -41 12 -88 22 -88 5 0 6 20 2 48 -7 53 -24 81 -24 40z"/>
<path d="M2537 891 c-76 -63 -105 -101 -76 -101 12 0 149 131 149 143 0 14
-16 5 -73 -42z"/>
<path d="M2585 869 c-71 -61 -95 -86 -95 -101 0 -5 14 -1 31 9 34 20 139 128
139 144 0 13 3 15 -75 -52z"/>
<path d="M9340 910 c0 -5 5 -10 11 -10 5 0 7 5 4 10 -3 6 -8 10 -11 10 -2 0
-4 -4 -4 -10z"/>
<path d="M2656 869 c-14 -11 -26 -25 -26 -30 0 -18 16 -9 38 21 27 35 24 37
-12 9z"/>
<path d="M2600 809 c0 -5 5 -7 10 -4 6 3 10 8 10 11 0 2 -4 4 -10 4 -5 0 -10
-5 -10 -11z"/>
<path d="M2624 791 c-58 -42 -80 -69 -66 -83 8 -8 25 4 66 45 31 31 56 59 56
62 0 11 -19 4 -56 -24z"/>
<path d="M2651 749 c-39 -33 -71 -67 -71 -75 0 -8 3 -14 6 -14 3 0 41 34 84
75 94 90 80 100 -19 14z"/>
<path d="M2551 776 c-34 -36 -22 -58 12 -24 27 27 35 48 19 48 -5 0 -19 -11
-31 -24z"/>
<path d="M2682 714 c-77 -71 -95 -94 -73 -94 12 0 171 150 171 161 0 20 -20 6
-98 -67z"/>
<path d="M9300 740 c0 -5 7 -10 16 -10 8 0 12 5 9 10 -3 6 -10 10 -16 10 -5 0
-9 -4 -9 -10z"/>
<path d="M9523 4455 c0 -22 2 -30 4 -17 2 12 2 30 0 40 -3 9 -5 -1 -4 -23z"/>
<path d="M2362 4455 c0 -16 2 -22 5 -12 2 9 2 23 0 30 -3 6 -5 -1 -5 -18z"/>
<path d="M2951 4224 c0 -21 4 -48 9 -59 6 -13 7 -1 3 35 -7 66 -13 78 -12 24z"/>
<path d="M3692 4470 c0 -14 2 -19 5 -12 2 6 2 18 0 25 -3 6 -5 1 -5 -13z"/>
<path d="M3531 4444 c0 -11 3 -14 6 -6 3 7 2 16 -1 19 -3 4 -6 -2 -5 -13z"/>
<path d="M3921 4294 c0 -11 3 -14 6 -6 3 7 2 16 -1 19 -3 4 -6 -2 -5 -13z"/>
<path d="M8350 4445 c0 -5 5 -17 10 -25 5 -8 10 -10 10 -5 0 6 -5 17 -10 25
-5 8 -10 11 -10 5z"/>
<path d="M8191 4444 c0 -11 3 -14 6 -6 3 7 2 16 -1 19 -3 4 -6 -2 -5 -13z"/>
<path d="M8092 4240 c0 -14 2 -19 5 -12 2 6 2 18 0 25 -3 6 -5 1 -5 -13z"/>
<path d="M3670 3870 c-6 -11 -8 -20 -6 -20 3 0 10 9 16 20 6 11 8 20 6 20 -3
0 -10 -9 -16 -20z"/>
<path d="M8215 3916 c10 -14 19 -26 22 -26 7 0 -17 39 -28 46 -6 3 -3 -5 6
-20z"/>
<path d="M8220 3861 c5 -11 15 -23 21 -27 6 -3 3 5 -6 20 -20 30 -30 35 -15 7z"/>
<path d="M8925 3550 c9 -16 18 -30 21 -30 2 0 -2 14 -11 30 -9 17 -18 30 -21
30 -2 0 2 -13 11 -30z"/>
<path d="M9006 3527 c3 -10 9 -15 12 -12 3 3 0 11 -7 18 -10 9 -11 8 -5 -6z"/>
<path d="M2977 3563 c-4 -3 -7 -11 -7 -17 0 -6 5 -5 12 2 6 6 9 14 7 17 -3 3
-9 2 -12 -2z"/>
<path d="M3448 3053 c7 -3 16 -2 19 1 4 3 -2 6 -13 5 -11 0 -14 -3 -6 -6z"/>
<path d="M3831 2994 c0 -11 3 -14 6 -6 3 7 2 16 -1 19 -3 4 -6 -2 -5 -13z"/>
<path d="M3717 2900 c3 -25 7 -47 9 -49 8 -9 2 55 -6 74 -6 13 -7 5 -3 -25z"/>
<path d="M8468 3043 c7 -3 16 -2 19 1 4 3 -2 6 -13 5 -11 0 -14 -3 -6 -6z"/>
<path d="M8202 2930 c0 -14 2 -19 5 -12 2 6 2 18 0 25 -3 6 -5 1 -5 -13z"/>
<path d="M8192 2880 c0 -14 2 -19 5 -12 2 6 2 18 0 25 -3 6 -5 1 -5 -13z"/>
<path d="M4225 1553 c-93 -21 -155 -69 -191 -148 -47 -99 -21 -222 61 -294 75
-66 -65 -61 1862 -61 l1758 0 53 31 c75 43 132 137 132 220 0 47 -32 128 -67
168 -18 22 -54 50 -81 63 l-47 23 -1730 1 c-951 1 -1739 0 -1750 -3z m3510
-47 c168 -78 179 -303 21 -401 l-49 -30 -1751 0 -1751 0 -40 22 c-83 44 -125
114 -125 205 1 92 52 171 135 209 38 18 113 19 1775 19 l1735 0 50 -24z"/>
<path d="M4500 1300 l0 -110 35 0 c33 0 35 2 35 35 0 31 3 35 25 35 20 0 25 5
25 25 0 20 -5 25 -25 25 -18 0 -25 5 -25 20 0 16 7 20 35 20 32 0 35 2 35 30
l0 30 -70 0 -70 0 0 -110z"/>
<path d="M4690 1300 l0 -110 35 0 35 0 0 110 0 110 -35 0 -35 0 0 -110z"/>
<path d="M4820 1380 c0 -25 4 -30 25 -30 25 0 25 -1 25 -80 l0 -80 35 0 35 0
0 80 c0 79 0 80 25 80 21 0 25 5 25 30 l0 30 -85 0 -85 0 0 -30z"/>
<path d="M5050 1300 l0 -110 30 0 c29 0 29 1 32 63 l3 62 33 -62 c31 -61 33
-63 72 -63 l40 0 0 110 0 110 -35 0 -35 0 -1 -62 -1 -63 -29 63 c-29 61 -30
62 -69 62 l-40 0 0 -110z"/>
<path d="M5320 1300 l0 -110 70 0 70 0 0 30 c0 28 -3 30 -35 30 -19 0 -35 5
-35 10 0 6 11 10 25 10 20 0 25 5 25 25 0 20 -5 25 -25 25 -38 0 -32 28 8 32
27 2 33 8 35 31 l3 27 -70 0 -71 0 0 -110z"/>
<path d="M5552 1400 c-32 -14 -48 -53 -34 -85 8 -17 24 -28 57 -36 26 -7 45
-17 45 -25 0 -16 -26 -19 -35 -4 -10 15 -75 12 -75 -3 0 -29 41 -52 90 -52 56
0 90 24 90 65 0 33 -23 55 -69 67 -19 5 -36 14 -39 21 -5 15 20 16 35 1 11
-11 63 -2 63 11 0 31 -85 58 -128 40z"/>
<path d="M5782 1400 c-32 -14 -48 -53 -34 -85 8 -17 24 -28 57 -36 26 -7 45
-17 45 -25 0 -16 -26 -19 -35 -4 -10 15 -75 12 -75 -3 0 -29 41 -52 90 -52 56
0 90 24 90 65 0 33 -23 55 -69 67 -19 5 -36 14 -39 21 -5 15 20 16 35 1 11
-11 63 -2 63 11 0 31 -85 58 -128 40z"/>
<path d="M6105 1397 c-49 -23 -70 -94 -44 -151 13 -27 64 -56 99 -56 44 0 100
44 100 78 0 6 -12 13 -26 16 -20 5 -32 2 -46 -13 -34 -37 -72 -17 -66 35 4 37
35 55 53 31 19 -26 71 -20 67 8 -8 50 -80 77 -137 52z"/>
<path d="M6310 1300 l0 -110 70 0 70 0 0 30 c0 28 -3 30 -35 30 -19 0 -35 5
-35 10 0 6 14 10 30 10 25 0 30 4 30 25 0 21 -5 25 -30 25 -20 0 -30 5 -30 15
0 10 11 15 35 15 32 0 35 2 35 30 l0 30 -70 0 -70 0 0 -110z"/>
<path d="M6510 1300 l0 -110 30 0 c29 0 29 1 32 63 l3 62 33 -62 c31 -61 33
-63 72 -63 l40 0 0 110 0 110 -30 0 -30 0 0 -60 c0 -33 -3 -60 -7 -60 -5 1
-20 28 -35 60 -26 59 -28 60 -67 60 l-41 0 0 -110z"/>
<path d="M6780 1381 c0 -23 5 -30 23 -33 20 -3 22 -9 25 -80 l3 -78 34 0 35 0
0 80 c0 79 0 80 25 80 21 0 25 5 25 30 l0 30 -85 0 -85 0 0 -29z"/>
<path d="M7000 1300 l0 -110 40 0 c39 0 40 1 40 35 0 19 5 35 10 35 6 0 10 -7
10 -15 0 -21 36 -55 58 -55 38 0 46 16 23 47 -22 29 -22 30 -4 60 14 25 15 38
8 59 -14 39 -48 54 -122 54 l-63 0 0 -110z m116 45 c6 -16 -12 -45 -27 -45 -5
0 -9 14 -9 30 0 32 26 43 36 15z"/>
<path d="M7250 1300 l0 -110 70 0 70 0 0 30 c0 28 -3 30 -35 30 -19 0 -35 5
-35 10 0 6 14 10 30 10 25 0 30 4 30 25 0 21 -5 25 -30 25 -20 0 -30 5 -30 15
0 10 11 15 35 15 32 0 35 2 35 30 l0 30 -70 0 -70 0 0 -110z"/>
<path d="M4230 1352 c-31 -25 -32 -88 -1 -113 52 -42 121 -10 121 55 0 62 -72
97 -120 58z"/>
<path d="M7555 1345 c-14 -13 -25 -36 -25 -50 0 -35 42 -75 78 -75 65 0 97 89
46 129 -35 28 -69 26 -99 -4z"/>
</g>
</svg>
